<?xml version="1.0" standalone="no"?>
<!DOCTYPE svg PUBLIC "-//W3C//DTD SVG 20010904//EN"
 "http://www.w3.org/TR/2001/REC-SVG-20010904/DTD/svg10.dtd">
<svg version="1.0" xmlns="http://www.w3.org/2000/svg"
 width="525.000000pt" height="213.000000pt" viewBox="0 0 525.000000 213.000000"
 preserveAspectRatio="xMidYMid meet">

<g transform="translate(0.000000,213.000000) scale(0.100000,-0.100000)"
fill="#000000" stroke="none">
<path d="M2188 1976 c-20 -19 -25 -34 -37 -116 -9 -55 1 -100 23 -100 5 0 25
14 43 32 25 24 33 28 33 15 0 -22 18 -22 42 0 29 26 22 -3 -13 -59 -17 -27
-28 -52 -24 -56 4 -4 13 2 21 13 8 11 30 42 50 69 19 26 30 45 24 41 -9 -6
-10 1 -5 24 8 38 0 39 -37 4 -27 -26 -28 -26 -28 -5 0 28 -8 28 -37 0 -19 -17
-23 -19 -17 -5 3 9 2 17 -4 17 -16 0 -35 -29 -28 -45 3 -9 0 -15 -9 -15 -21 0
-19 30 6 91 11 29 19 66 17 83 -3 28 -4 29 -20 12z"/>
<path d="M2465 1970 c-3 -5 4 -10 16 -10 16 0 19 -3 12 -12 -13 -17 -25 -64
-29 -111 -1 -21 -7 -44 -13 -51 -9 -11 -9 -15 0 -18 12 -4 78 12 112 27 12 5
22 2 31 -10 13 -17 26 -17 69 0 12 5 17 2 17 -8 0 -9 5 -19 10 -22 13 -8 50 3
50 15 0 5 -7 7 -15 4 -11 -5 -15 1 -15 20 0 30 -9 32 -51 11 -42 -22 -57 -8
-25 22 29 26 32 38 14 49 -7 4 -22 -6 -38 -25 l-27 -32 -36 23 c-20 13 -36 26
-37 30 0 3 17 15 37 25 78 41 67 83 -23 83 -29 0 -56 -4 -59 -10z m90 -23 c17
-13 17 -15 -6 -30 -37 -27 -50 -22 -38 13 12 34 17 36 44 17z m-34 -144 c-39
-17 -44 -14 -35 21 6 25 6 25 38 9 l31 -16 -34 -14z"/>
<path d="M2001 1923 c-6 -21 -11 -59 -11 -84 0 -52 -24 -86 -37 -54 -6 16 -9
15 -30 -11 l-25 -29 22 43 c29 60 18 64 -21 8 -23 -32 -35 -42 -41 -33 -12 18
-30 -12 -23 -40 6 -26 -10 -31 -19 -7 -3 9 -3 51 0 94 5 57 3 79 -6 85 -22 14
-31 -18 -27 -98 2 -43 0 -80 -5 -83 -4 -3 -8 3 -8 14 0 25 -6 30 -33 25 -16
-3 -29 -19 -44 -56 -14 -37 -26 -52 -39 -52 -16 0 -19 9 -22 50 -4 82 -12 115
-27 115 -30 0 -7 -181 23 -187 42 -9 52 -5 63 25 7 15 13 22 16 15 8 -21 36
-15 62 12 22 24 25 24 41 10 16 -15 19 -15 34 0 9 9 16 21 16 26 0 6 9 8 19 4
13 -4 25 3 40 22 11 15 21 22 21 16 0 -20 27 -15 43 7 12 17 16 18 26 6 14
-16 47 -10 55 10 4 11 0 13 -18 8 -33 -8 -37 5 -20 64 17 57 16 103 -3 109 -7
3 -16 -12 -22 -34z m16 -60 c-3 -10 -5 -4 -5 12 0 17 2 24 5 18 2 -7 2 -21 0
-30z m-400 -150 c-3 -10 -5 -2 -5 17 0 19 2 27 5 18 2 -10 2 -26 0 -35z m138
-22 c-3 -12 -11 -21 -16 -21 -10 0 -12 43 -2 54 12 12 25 -11 18 -33z"/>
<path d="M2711 1886 c-17 -21 4 -30 23 -10 9 8 16 17 16 20 0 10 -29 3 -39
-10z"/>
<path d="M2769 1789 l-24 -20 23 6 c23 7 24 7 6 -19 -22 -35 -13 -41 27 -21
31 17 33 16 46 -1 8 -11 18 -18 23 -17 5 2 12 -6 15 -17 4 -14 -3 -27 -26 -48
-35 -31 -33 -52 5 -52 30 0 59 22 61 48 0 11 7 28 15 37 12 15 12 16 -5 13
-35 -6 -28 28 10 50 35 21 46 42 22 42 -7 0 -28 -11 -47 -25 -41 -30 -46 -31
-53 -5 -4 17 -9 19 -31 10 -24 -9 -26 -8 -16 9 14 27 13 31 -9 31 -10 0 -29
-9 -42 -21z m116 -165 c-28 -21 -41 -3 -14 18 17 14 25 16 28 7 2 -7 -4 -18
-14 -25z"/>
<path d="M3117 1766 c-12 -13 -40 -49 -61 -80 -45 -65 -40 -81 23 -81 31 0 37
-3 33 -17 -4 -18 1 -22 50 -32 18 -4 25 -11 22 -20 -7 -19 23 -46 51 -46 16 0
22 -5 21 -17 -1 -13 7 -19 27 -21 18 -2 27 -9 27 -22 0 -11 10 -20 25 -24 16
-4 22 -11 19 -21 -7 -18 13 -45 33 -45 13 0 13 3 3 15 -20 24 -4 42 44 48 51
7 106 32 106 47 0 16 -56 11 -112 -10 -69 -26 -91 -26 -83 -1 4 14 0 21 -12
24 -10 3 -1 5 20 6 20 0 37 6 37 11 0 6 -1 10 -2 11 -2 0 -40 4 -86 8 -45 5
-85 11 -88 14 -14 13 10 27 47 27 21 0 39 5 39 10 0 9 -50 15 -94 11 -19 -1
-19 0 -2 18 15 16 15 22 4 40 -14 24 -17 24 -73 11 -39 -9 -85 -4 -85 9 0 4
27 37 60 74 33 38 60 70 60 72 0 14 -34 2 -53 -19z m62 -187 c-21 -13 -39 -11
-39 5 0 8 10 16 23 18 26 4 36 -10 16 -23z m294 -156 c-7 -2 -19 -2 -25 0 -7
3 -2 5 12 5 14 0 19 -2 13 -5z"/>
<path d="M1470 1725 c-7 -9 -15 -37 -17 -63 -8 -98 79 -178 111 -102 l13 32
21 -34 c19 -29 22 -30 22 -11 0 34 -31 104 -44 100 -6 -2 -13 -21 -16 -43 -4
-31 -10 -40 -27 -42 -17 -3 -27 6 -42 37 -37 72 -20 138 27 106 24 -18 41 -2
22 20 -16 19 -54 19 -70 0z"/>
<path d="M2158 1633 c12 -2 30 -2 40 0 9 3 -1 5 -23 4 -22 0 -30 -2 -17 -4z"/>
<path d="M2077 1618 c-27 -10 -28 -11 -9 -24 13 -9 28 -10 48 -4 l29 8 -35 2
-35 2 30 13 c35 16 14 18 -28 3z"/>
<path d="M2552 1598 c15 -13 27 -32 26 -43 0 -11 3 -28 7 -37 5 -13 3 -18 -8
-18 -8 0 -20 -6 -27 -14 -9 -12 -17 -13 -36 -4 -20 10 -27 9 -35 -3 -14 -22
-11 -51 9 -66 16 -13 15 -14 -5 -8 -25 7 -33 -12 -9 -21 8 -3 12 -12 9 -20 -7
-18 -23 -18 -23 0 0 7 -7 20 -16 27 -15 12 -16 11 -10 -9 6 -18 4 -22 -13 -22
-26 0 -101 -29 -122 -47 -23 -19 -46 -16 -52 7 -4 17 -1 19 19 14 34 -9 30 8
-7 29 -42 23 -49 22 -128 -18 -75 -38 -106 -65 -76 -65 13 0 16 -6 12 -25 -7
-37 21 -29 50 14 25 38 61 66 70 57 4 -3 -1 -14 -10 -24 -22 -24 -21 -32 2
-32 11 0 23 -4 26 -10 4 -6 -5 -10 -19 -10 -14 0 -26 -4 -26 -10 0 -5 -6 -10
-14 -10 -8 0 -16 -7 -20 -15 -6 -16 -47 -19 -80 -6 -30 12 -146 -20 -146 -41
0 -29 -28 -50 -52 -37 -16 8 -24 7 -41 -8 -12 -10 -40 -25 -61 -32 -96 -33
-249 -148 -283 -215 -10 -19 -18 -26 -21 -18 -3 10 -9 9 -24 -4 -28 -26 -52
-7 -58 47 -3 30 -10 45 -22 47 -9 2 -48 -25 -88 -58 -39 -34 -74 -59 -78 -56
-3 4 41 54 98 110 57 57 106 109 108 115 6 19 -29 24 -61 9 -30 -14 -144 -104
-177 -139 -31 -33 -128 -109 -139 -109 -14 0 -14 3 4 47 18 42 19 96 4 125
-16 29 -61 67 -80 68 -24 0 -71 -40 -65 -57 6 -15 -94 -130 -131 -151 -30 -17
-73 -12 -86 10 -9 13 -1 26 36 68 55 61 76 117 59 155 -17 36 -56 33 -94 -7
-35 -37 -78 -122 -78 -154 0 -24 -17 -34 -46 -30 -15 2 -20 15 -25 55 -8 57
-5 53 -103 165 -75 86 -111 154 -102 191 7 26 91 115 109 115 6 0 -2 -13 -17
-29 -31 -32 -27 -56 7 -45 12 3 52 29 89 56 71 52 90 87 68 127 -15 30 -41 26
-133 -19 -156 -76 -247 -187 -234 -285 7 -48 49 -111 111 -165 43 -39 106
-122 106 -142 0 -23 -27 -72 -55 -98 -14 -13 -25 -19 -25 -14 0 5 9 15 20 22
23 14 27 32 7 32 -22 0 -171 -76 -186 -94 -18 -22 -6 -45 32 -64 36 -18 115
14 194 77 54 44 68 50 125 56 l65 7 13 -31 c17 -42 42 -54 92 -46 35 6 57 23
137 101 53 52 99 94 104 94 4 0 13 -12 19 -26 10 -21 9 -38 -6 -87 -37 -130
-21 -143 85 -73 59 39 67 43 58 22 -14 -29 3 -66 29 -66 24 0 100 49 136 89
34 35 46 39 46 13 0 -31 29 -62 58 -62 36 0 61 18 164 119 138 134 236 189
287 162 17 -10 27 -7 58 14 23 15 51 25 73 25 29 0 37 -5 50 -32 22 -46 44
-50 25 -4 -10 22 -11 37 -5 41 12 7 49 -70 50 -102 0 -13 5 -23 10 -23 6 0 10
9 10 20 0 15 7 20 29 20 17 0 33 -4 36 -10 3 -5 1 -10 -5 -10 -6 0 -10 -10 -8
-22 2 -18 12 -25 46 -32 40 -8 43 -11 37 -35 -3 -14 -14 -32 -23 -39 -18 -14
-71 -7 -114 14 -34 17 -55 18 -61 2 -3 -8 -20 2 -46 27 -32 31 -41 45 -36 63
7 27 -13 36 -102 47 -67 7 -58 11 -154 -64 -38 -30 -69 -99 -69 -151 0 -62 37
-148 70 -165 16 -8 38 -15 50 -15 11 0 41 -19 65 -41 36 -33 45 -48 45 -75 0
-18 11 -54 25 -80 17 -31 25 -63 25 -94 0 -41 7 -57 44 -107 24 -33 56 -69 71
-81 30 -24 83 -37 113 -28 31 10 72 53 72 76 0 15 11 26 36 36 39 16 39 14 18
107 -6 25 1 35 66 95 40 37 81 84 91 105 l20 38 -50 -7 c-49 -6 -52 -5 -89 32
-20 22 -42 50 -49 64 -37 84 -63 154 -57 159 9 9 61 -57 69 -88 4 -14 13 -33
20 -41 8 -9 21 -32 30 -53 10 -25 22 -37 35 -37 49 0 145 58 176 106 16 23 15
26 -9 48 -22 20 -28 22 -38 10 -6 -8 -17 -14 -24 -14 -17 0 -65 57 -65 76 0
20 8 18 42 -11 20 -17 37 -24 50 -19 10 3 26 0 34 -6 9 -8 31 -10 62 -6 42 5
54 3 85 -19 21 -13 37 -20 37 -15 0 24 18 7 24 -22 7 -33 63 -128 76 -128 9 0
20 36 20 68 0 33 66 158 87 166 13 5 25 -1 44 -24 19 -22 29 -28 34 -19 6 8
11 6 19 -7 7 -12 23 -20 43 -20 38 -2 50 26 28 66 -39 70 -39 70 -26 83 9 9
14 9 19 0 4 -6 8 19 10 55 2 71 6 82 24 64 9 -9 9 -28 0 -84 -9 -49 -9 -75 -2
-82 5 -5 10 -31 10 -57 0 -60 15 -72 24 -18 4 22 11 37 16 34 12 -8 13 102 1
162 l-8 43 31 -5 c17 -3 111 -21 208 -40 237 -47 402 -65 583 -65 266 0 336
23 489 158 27 24 64 49 83 57 41 17 108 70 129 102 29 46 4 37 -50 -16 -33
-33 -60 -52 -69 -48 -10 4 -16 29 -19 89 -3 45 -13 100 -21 120 -18 44 -71 80
-107 74 -14 -2 -29 -5 -33 -5 -4 -1 -21 -15 -37 -32 l-28 -32 -71 23 c-66 22
-71 22 -96 6 -35 -23 -60 -77 -51 -111 10 -40 80 -110 139 -138 29 -14 86 -35
127 -47 41 -12 79 -24 83 -27 13 -8 -51 -52 -120 -84 -176 -82 -437 -78 -942
13 l-234 43 -14 35 c-32 77 -77 162 -81 151 -2 -6 10 -35 26 -64 38 -67 50
-117 28 -117 -14 0 -44 37 -81 100 -6 9 -15 15 -22 13 -13 -5 -27 32 -18 47 4
7 14 6 28 -2 21 -11 21 -11 5 13 -10 13 -30 47 -46 74 -41 70 -97 125 -120
118 -14 -3 -33 12 -71 56 -29 34 -49 61 -44 61 14 1 -25 21 -80 40 -98 34 -94
34 -65 8z m1868 -206 c15 -16 35 -53 44 -82 15 -50 15 -58 0 -103 -21 -64 -43
-74 -126 -58 -144 28 -258 108 -258 182 0 66 64 82 144 35 25 -14 51 -26 59
-26 8 0 21 18 30 40 13 35 19 40 47 40 21 0 41 -9 60 -28z m-3750 -413 c-25
-34 -46 -39 -29 -6 18 35 30 47 40 41 5 -3 0 -19 -11 -35z"/>
<path d="M2184 1585 c27 -21 53 -20 36 0 -7 8 -22 15 -34 15 -21 -1 -21 -1 -2
-15z"/>
<path d="M2015 1569 c-16 -5 -35 -7 -41 -5 -6 2 -11 -2 -11 -10 0 -15 29 -11
82 12 34 15 15 17 -30 3z"/>
<path d="M1895 1539 c-33 -17 -124 -99 -110 -99 3 0 41 27 86 60 85 63 91 73
24 39z"/>
<path d="M1370 1499 c0 -5 -4 -7 -10 -4 -6 4 -10 -14 -10 -47 0 -33 3 -48 9
-39 6 9 11 10 15 2 13 -21 34 -11 47 22 7 17 14 35 17 40 2 4 -3 7 -11 7 -8 0
-17 7 -21 15 -6 17 -36 21 -36 4z m34 -35 c7 -18 0 -34 -15 -34 -5 0 -9 11 -9
25 0 28 15 34 24 9z"/>
<path d="M1189 1456 c-17 -36 -3 -91 33 -131 52 -60 108 -56 108 7 l0 29 30
-21 c45 -32 39 -2 -9 44 -42 41 -56 37 -41 -13 20 -70 -13 -80 -71 -22 -29 29
-39 47 -39 71 0 30 2 32 30 28 24 -4 30 -1 28 11 -2 9 -15 17 -31 19 -21 3
-29 -2 -38 -22z"/>
<path d="M2235 1470 c-3 -5 -1 -10 4 -10 6 0 11 5 11 10 0 6 -2 10 -4 10 -3 0
-8 -4 -11 -10z"/>
<path d="M2370 1425 c-6 -8 -10 -19 -8 -24 1 -6 8 1 15 14 13 28 11 31 -7 10z"/>
<path d="M1980 1410 c0 -5 7 -10 15 -10 8 0 15 5 15 10 0 6 -7 10 -15 10 -8 0
-15 -4 -15 -10z"/>
<path d="M2930 1366 c0 -2 8 -10 18 -17 15 -13 16 -12 3 4 -13 16 -21 21 -21
13z"/>
<path d="M1943 1254 c-19 -37 -20 -45 -7 -42 9 2 22 21 30 43 16 47 16 45 7
45 -5 0 -18 -21 -30 -46z"/>
<path d="M1914 1265 c-10 -8 -14 -15 -8 -15 6 0 17 7 24 15 16 19 9 19 -16 0z"/>
<path d="M3477 836 c-115 -57 -168 -154 -118 -217 11 -13 40 -46 65 -73 52
-55 55 -70 23 -106 -12 -14 -18 -20 -13 -13 15 23 3 22 -54 -6 -61 -29 -76
-57 -36 -67 33 -8 58 1 111 42 25 19 54 34 64 34 10 0 30 9 43 20 29 22 38 18
38 -20 0 -29 16 -50 40 -50 9 0 33 18 55 40 37 38 39 39 52 20 21 -30 58 -24
103 16 46 42 57 40 41 -7 -28 -80 -5 -78 75 9 34 37 65 64 69 60 3 -3 -1 -34
-9 -68 -19 -75 -19 -70 -2 -70 8 0 34 22 57 50 23 27 48 50 54 50 7 0 26 -14
43 -30 18 -17 39 -30 47 -30 8 0 33 16 55 36 22 20 42 35 45 33 2 -2 -2 -23
-8 -46 -6 -23 -8 -46 -4 -50 4 -4 39 24 78 63 l71 69 -6 -45 c-3 -25 -8 -57
-12 -72 -10 -44 17 -35 65 22 23 27 47 50 53 50 6 0 26 -13 45 -30 38 -34 55
-37 73 -15 17 21 37 19 45 -4 3 -11 15 -23 26 -26 40 -13 83 7 150 72 58 56
68 62 79 48 11 -13 11 -25 1 -63 -7 -26 -15 -57 -18 -69 -4 -17 -1 -23 11 -23
22 0 116 61 116 76 0 22 -13 23 -38 4 -31 -25 -37 -20 -23 21 17 50 13 76 -18
111 -29 32 -31 32 -57 18 -15 -8 -28 -24 -30 -34 -1 -10 -22 -38 -45 -62 -33
-34 -51 -44 -75 -44 -39 0 -50 22 -23 46 58 52 77 136 32 142 -26 4 -65 -36
-88 -92 -43 -103 -51 -107 -90 -46 -14 22 -28 40 -31 40 -13 0 -74 -42 -74
-51 0 -5 -4 -9 -9 -9 -6 0 -6 11 0 29 13 36 8 83 -8 88 -7 3 -37 -18 -66 -46
l-54 -51 1 36 c1 22 -4 39 -12 41 -7 3 -41 -23 -74 -56 -34 -34 -65 -60 -69
-59 -4 2 -18 18 -31 37 -13 19 -28 36 -35 38 -6 2 -27 -10 -46 -26 l-34 -31 1
57 c1 37 -3 57 -12 60 -7 3 -35 -18 -63 -46 -28 -28 -51 -51 -52 -51 -2 0 -1
18 1 40 6 59 -20 53 -91 -21 -63 -65 -87 -70 -87 -19 0 42 -32 40 -59 -3 -11
-18 -31 -43 -45 -56 -24 -22 -26 -23 -32 -6 -4 10 0 47 10 83 9 35 15 66 13
68 -11 11 -39 -12 -82 -67 -50 -64 -65 -72 -65 -36 0 26 -17 52 -73 117 -52
60 -61 84 -42 120 8 16 25 35 38 41 18 9 20 9 10 -2 -7 -7 -13 -17 -13 -21 0
-16 22 -8 66 24 36 26 44 37 42 57 -4 34 -23 36 -81 7z m1313 -275 c-10 -21
-30 -37 -30 -26 0 14 21 45 31 45 6 0 6 -7 -1 -19z"/>
<path d="M3107 724 c-9 -30 -17 -65 -17 -77 1 -21 1 -21 15 -3 13 17 32 122
23 131 -2 2 -12 -20 -21 -51z"/>
<path d="M2945 721 c-8 -25 3 -64 16 -56 11 8 12 46 0 64 -7 11 -10 9 -16 -8z"/>
<path d="M3015 669 c9 -17 19 -29 21 -26 8 7 -15 57 -26 57 -6 0 -4 -13 5 -31z"/>
<path d="M3006 605 c27 -36 44 -45 44 -22 0 17 -11 30 -37 45 -35 19 -36 15
-7 -23z"/>
<path d="M2800 594 c0 -8 5 -12 10 -9 6 4 8 11 5 16 -9 14 -15 11 -15 -7z"/>
<path d="M2652 480 c-35 -29 -52 -82 -52 -162 0 -91 16 -121 63 -116 48 5 67
50 67 160 0 132 -22 165 -78 118z m42 -52 c9 -36 7 -134 -4 -162 -11 -29 -44
-35 -54 -10 -10 25 -7 140 4 168 12 33 45 35 54 4z"/>
<path d="M2787 493 c-12 -11 -8 -44 6 -42 33 4 48 -3 57 -26 11 -30 -4 -76
-44 -128 -15 -20 -26 -47 -26 -65 l0 -32 60 0 c53 0 60 2 60 20 0 17 -7 20
-40 20 -22 0 -40 3 -40 6 0 4 15 27 34 53 43 59 50 83 36 126 -17 52 -79 93
-103 68z"/>
<path d="M2947 413 c-13 -12 -7 -23 12 -23 10 0 29 -8 42 -18 28 -24 20 -52
-16 -52 -34 0 -32 -15 5 -30 21 -9 30 -19 30 -35 0 -28 -22 -38 -56 -25 -22 9
-25 7 -22 -7 4 -22 67 -30 98 -13 26 14 26 55 0 73 -18 12 -18 15 -5 20 37 15
7 75 -52 106 -25 13 -28 13 -36 4z"/>
<path d="M2476 379 c-41 -36 -42 -50 -1 -23 57 37 57 -27 -1 -94 -19 -22 -34
-45 -34 -52 0 -17 122 -9 128 9 3 10 -6 12 -42 10 -52 -5 -55 -1 -25 27 31 28
61 92 57 122 -4 40 -38 40 -82 1z"/>
<path d="M2745 340 c3 -5 8 -10 11 -10 2 0 4 5 4 10 0 6 -5 10 -11 10 -5 0 -7
-4 -4 -10z"/>
<path d="M2898 328 c-10 -9 -13 -20 -9 -23 10 -6 34 21 29 33 -1 4 -11 0 -20
-10z"/>
<path d="M3066 305 c-9 -26 -7 -32 5 -12 6 10 9 21 6 23 -2 3 -7 -2 -11 -11z"/>
<path d="M2553 288 c-22 -28 -24 -38 -8 -32 9 4 13 9 11 12 -3 3 -1 11 5 19 6
7 9 13 6 13 -2 0 -9 -6 -14 -12z"/>
<path d="M2855 270 c-3 -6 1 -7 9 -4 18 7 21 14 7 14 -6 0 -13 -4 -16 -10z"/>
<path d="M2740 250 c0 -11 2 -20 4 -20 2 0 6 9 9 20 3 11 1 20 -4 20 -5 0 -9
-9 -9 -20z"/>
<path d="M2338 242 c-27 -16 -44 -54 -33 -72 15 -24 42 -8 63 35 12 25 22 48
22 50 0 10 -25 3 -52 -13z"/>
<path d="M3070 219 c0 -7 -8 -18 -17 -25 -16 -12 -16 -12 5 -7 13 3 22 13 22
24 0 11 -2 19 -5 19 -3 0 -5 -5 -5 -11z"/>
<path d="M2720 210 c0 -5 5 -10 10 -10 6 0 10 5 10 10 0 6 -4 10 -10 10 -5 0
-10 -4 -10 -10z"/>
<path d="M2686 190 c-19 -6 -19 -7 -1 -14 10 -3 22 -3 28 3 12 12 -4 20 -27
11z"/>
<path d="M2910 189 c0 -5 5 -7 10 -4 6 3 10 8 10 11 0 2 -4 4 -10 4 -5 0 -10
-5 -10 -11z"/>
<path d="M2538 183 c7 -3 16 -2 19 1 4 3 -2 6 -13 5 -11 0 -14 -3 -6 -6z"/>
<path d="M2878 183 c7 -3 16 -2 19 1 4 3 -2 6 -13 5 -11 0 -14 -3 -6 -6z"/>
<path d="M2305 114 c-12 -12 -13 -19 -4 -30 17 -21 27 -17 44 16 15 28 14 30
-4 30 -11 0 -27 -7 -36 -16z"/>
<path d="M2090 70 c0 -5 9 -10 21 -10 11 0 17 5 14 10 -3 6 -13 10 -21 10 -8
0 -14 -4 -14 -10z"/>
<path d="M2270 40 c-11 -7 -3 -10 30 -9 34 0 40 2 25 9 -27 12 -37 12 -55 0z"/>
</g>
</svg>
