<?xml version="1.0" standalone="no"?>
<!DOCTYPE svg PUBLIC "-//W3C//DTD SVG 20010904//EN"
 "http://www.w3.org/TR/2001/REC-SVG-20010904/DTD/svg10.dtd">
<svg version="1.0" xmlns="http://www.w3.org/2000/svg"
 width="750.000000pt" height="1000.000000pt" viewBox="0 0 750.000000 1000.000000"
 preserveAspectRatio="xMidYMid meet">

<g transform="translate(0.000000,1000.000000) scale(0.100000,-0.100000)"
fill="#000000" stroke="none">
<path d="M4586 9112 l-19 -27 24 22 c12 12 21 24 18 27 -2 2 -13 -8 -23 -22z"/>
<path d="M4620 9111 c0 -16 5 -33 10 -36 6 -4 10 6 10 24 0 16 -4 33 -10 36
-6 4 -10 -6 -10 -24z"/>
<path d="M5000 9099 c0 -5 5 -7 10 -4 6 3 10 8 10 11 0 2 -4 4 -10 4 -5 0 -10
-5 -10 -11z"/>
<path d="M3905 9075 c-5 -2 -21 -6 -35 -9 -34 -7 -65 -68 -50 -97 10 -18 13
-18 40 -4 34 18 35 19 16 38 -13 12 -11 14 15 13 18 -1 31 -7 35 -18 6 -19 24
-25 24 -8 0 6 -5 10 -11 10 -6 0 -9 6 -6 13 2 6 -3 19 -12 27 -8 8 -16 13 -17
10 -1 -3 -6 -2 -10 2 -15 16 42 -3 68 -22 19 -14 29 -16 34 -8 4 6 3 8 -3 5
-5 -4 -23 7 -38 23 -29 30 -31 31 -50 25z m-60 -95 c3 -5 1 -10 -4 -10 -6 0
-11 5 -11 10 0 6 2 10 4 10 3 0 8 -4 11 -10z"/>
<path d="M4130 8990 c-15 -9 -21 -83 -7 -96 12 -13 37 19 41 53 2 25 0 30 -12
25 -11 -4 -14 -1 -9 11 7 20 7 20 -13 7z"/>
<path d="M3888 8953 c7 -3 16 -2 19 1 4 3 -2 6 -13 5 -11 0 -14 -3 -6 -6z"/>
<path d="M4280 8953 c0 -6 8 -17 18 -24 16 -13 16 -13 2 6 -8 11 -16 22 -17
24 -2 2 -3 0 -3 -6z"/>
<path d="M6497 8953 c-10 -9 -9 -23 1 -23 5 0 9 7 9 15 0 17 -1 18 -10 8z"/>
<path d="M3940 8940 c0 -5 5 -10 11 -10 5 0 7 5 4 10 -3 6 -8 10 -11 10 -2 0
-4 -4 -4 -10z"/>
<path d="M2645 8930 c-3 -5 -1 -10 4 -10 6 0 11 5 11 10 0 6 -2 10 -4 10 -3 0
-8 -4 -11 -10z"/>
<path d="M2720 8900 c-13 -8 -12 -10 3 -10 9 0 17 5 17 10 0 12 -1 12 -20 0z"/>
<path d="M2675 8890 c-3 -6 1 -7 9 -4 18 7 21 14 7 14 -6 0 -13 -4 -16 -10z"/>
<path d="M4479 8877 c6 -8 7 -18 3 -22 -4 -5 -2 -5 5 -1 14 8 6 36 -9 36 -7 0
-6 -5 1 -13z"/>
<path d="M4374 8851 c-11 -50 -14 -53 -39 -48 -14 2 -28 0 -31 -4 -3 -5 4 -10
15 -10 12 -1 26 -2 33 -3 7 -1 19 10 26 24 l14 25 -6 -27 c-4 -16 -3 -28 1
-29 5 0 16 -2 26 -4 9 -2 15 0 12 5 -3 5 0 21 5 35 14 38 5 60 -25 61 -20 2
-26 -4 -31 -25z"/>
<path d="M2649 8853 c-13 -16 -12 -17 4 -4 16 13 21 21 13 21 -2 0 -10 -8 -17
-17z"/>
<path d="M3526 8841 c-16 -9 -31 -23 -33 -31 -3 -9 2 -7 11 4 12 15 16 16 16
5 1 -11 4 -10 14 3 14 18 26 14 26 -9 0 -7 -7 -13 -16 -13 -10 0 -13 -6 -10
-18 4 -11 -2 -27 -14 -40 -12 -12 -17 -22 -12 -22 7 0 59 66 86 110 9 13 7 13
-9 0 -10 -8 -16 -10 -12 -4 13 23 -17 32 -47 15z"/>
<path d="M3740 8831 c0 -11 31 -24 39 -16 3 3 -1 10 -9 15 -19 12 -30 12 -30
1z"/>
<path d="M2213 8804 l-28 -25 33 22 c17 13 32 24 32 26 0 8 -11 1 -37 -23z"/>
<path d="M5856 8795 c4 -8 10 -15 15 -15 5 0 9 7 9 15 0 8 -7 15 -15 15 -9 0
-12 -6 -9 -15z"/>
<path d="M1210 8770 c-9 -6 -10 -10 -3 -10 6 0 15 5 18 10 8 12 4 12 -15 0z"/>
<path d="M2298 8763 c7 -3 16 -2 19 1 4 3 -2 6 -13 5 -11 0 -14 -3 -6 -6z"/>
<path d="M4710 8761 c0 -5 5 -13 10 -16 6 -3 10 -2 10 4 0 5 -4 13 -10 16 -5
3 -10 2 -10 -4z"/>
<path d="M4744 8731 c4 -5 -3 -7 -15 -4 -19 5 -20 3 -14 -31 5 -26 3 -43 -10
-62 -11 -18 -12 -24 -4 -18 12 6 12 5 0 -9 -10 -13 -11 -20 -2 -31 6 -7 10
-20 8 -27 -2 -8 -2 -11 0 -6 8 13 33 7 63 -15 24 -17 27 -24 18 -36 -10 -12
-9 -14 7 -11 17 4 20 13 21 64 1 78 -13 136 -37 153 -10 7 -19 20 -19 28 0 8
-5 14 -11 14 -5 0 -8 -4 -5 -9z"/>
<path d="M2193 8716 c-13 -6 -23 -14 -23 -19 0 -9 36 9 45 23 3 6 5 9 3 9 -2
-1 -13 -6 -25 -13z"/>
<path d="M1038 8626 c-28 -10 -37 -30 -18 -41 6 -3 10 -1 10 5 0 6 4 9 8 6 5
-3 16 4 25 14 20 24 11 30 -25 16z"/>
<path d="M4640 8625 c-6 -8 -10 -19 -8 -24 1 -6 8 1 15 14 13 28 11 31 -7 10z"/>
<path d="M4645 8570 c3 -5 8 -10 11 -10 2 0 4 5 4 10 0 6 -5 10 -11 10 -5 0
-7 -4 -4 -10z"/>
<path d="M4663 8545 c-7 -19 21 -51 50 -58 20 -5 20 -4 -4 16 -15 12 -25 30
-24 40 4 21 -13 23 -22 2z"/>
<path d="M4976 8500 l-27 -41 28 -44 c15 -24 34 -46 41 -49 7 -3 11 -2 8 2 -3
5 10 9 29 9 19 0 35 -5 36 -11 0 -6 4 0 10 12 6 15 5 30 -1 40 -5 10 -10 12
-10 5 0 -21 -20 -15 -20 6 0 11 -4 21 -10 23 -6 2 -4 13 3 28 11 22 10 27 -9
43 -33 26 -49 21 -78 -23z"/>
<path d="M5180 8522 c0 -5 10 -17 22 -28 l21 -19 -18 28 c-18 28 -25 33 -25
19z"/>
<path d="M2852 8487 c-9 -11 -10 -17 -2 -22 15 -9 23 -1 18 21 -3 15 -4 16
-16 1z"/>
<path d="M2900 8486 c0 -2 7 -9 15 -16 9 -7 15 -8 15 -2 0 5 -7 12 -15 16 -8
3 -15 4 -15 2z"/>
<path d="M3560 8460 c0 -19 3 -21 12 -12 9 9 9 15 0 24 -9 9 -12 7 -12 -12z"/>
<path d="M5226 8445 c9 -14 19 -24 21 -21 6 6 -20 46 -30 46 -4 0 0 -11 9 -25z"/>
<path d="M6055 8370 c3 -5 8 -10 11 -10 2 0 4 5 4 10 0 6 -5 10 -11 10 -5 0
-7 -4 -4 -10z"/>
<path d="M2735 8360 c3 -5 10 -10 16 -10 5 0 9 5 9 10 0 6 -7 10 -16 10 -8 0
-12 -4 -9 -10z"/>
<path d="M4140 8339 c0 -5 5 -7 10 -4 6 3 10 8 10 11 0 2 -4 4 -10 4 -5 0 -10
-5 -10 -11z"/>
<path d="M2760 8329 c0 -8 10 -20 23 -28 l22 -14 -20 24 c-11 13 -21 26 -22
28 -2 2 -3 -2 -3 -10z"/>
<path d="M4090 8300 c-9 -16 -8 -18 5 -14 8 4 15 12 15 20 0 20 -7 17 -20 -6z"/>
<path d="M5767 8300 c-11 -11 -14 -20 -8 -24 15 -10 50 15 44 31 -7 17 -14 16
-36 -7z"/>
<path d="M4475 8290 c-3 -5 -1 -10 4 -10 6 0 11 5 11 10 0 6 -2 10 -4 10 -3 0
-8 -4 -11 -10z"/>
<path d="M4970 8260 c0 -5 5 -10 11 -10 5 0 7 5 4 10 -3 6 -8 10 -11 10 -2 0
-4 -4 -4 -10z"/>
<path d="M5790 8239 c0 -5 5 -7 10 -4 6 3 10 8 10 11 0 2 -4 4 -10 4 -5 0 -10
-5 -10 -11z"/>
<path d="M4305 8230 c3 -5 8 -10 11 -10 2 0 4 5 4 10 0 6 -5 10 -11 10 -5 0
-7 -4 -4 -10z"/>
<path d="M5610 8215 c0 -25 30 -76 40 -70 6 4 10 13 10 21 0 9 7 14 18 12 11
-3 16 -12 14 -27 -3 -35 9 -50 35 -40 32 12 56 54 49 85 -6 23 -11 25 -46 23
-22 -2 -42 0 -46 4 -4 4 -22 7 -41 7 -23 0 -33 -5 -33 -15z"/>
<path d="M4922 8200 c0 -14 2 -19 5 -12 2 6 2 18 0 25 -3 6 -5 1 -5 -13z"/>
<path d="M5046 8207 c3 -10 9 -15 12 -12 3 3 0 11 -7 18 -10 9 -11 8 -5 -6z"/>
<path d="M735 8200 c-3 -5 -1 -10 4 -10 6 0 11 5 11 10 0 6 -2 10 -4 10 -3 0
-8 -4 -11 -10z"/>
<path d="M5830 8200 c0 -5 5 -10 11 -10 5 0 7 5 4 10 -3 6 -8 10 -11 10 -2 0
-4 -4 -4 -10z"/>
<path d="M4135 8190 c-3 -5 -2 -10 4 -10 5 0 13 5 16 10 3 6 2 10 -4 10 -5 0
-13 -4 -16 -10z"/>
<path d="M1910 8180 c0 -5 5 -10 10 -10 6 0 10 5 10 10 0 6 -4 10 -10 10 -5 0
-10 -4 -10 -10z"/>
<path d="M5576 8175 c4 -8 8 -15 10 -15 2 0 4 7 4 15 0 8 -4 15 -10 15 -5 0
-7 -7 -4 -15z"/>
<path d="M2145 8140 c-3 -5 1 -10 9 -10 9 0 16 5 16 10 0 6 -4 10 -9 10 -6 0
-13 -4 -16 -10z"/>
<path d="M5497 8057 c-3 -7 -3 -24 -1 -37 3 -14 7 -42 10 -63 8 -50 20 -55 17
-8 -1 32 2 40 23 50 32 14 30 16 44 -19 7 -16 16 -30 21 -30 15 0 32 -41 21
-52 -6 -6 -8 -17 -5 -24 9 -25 -26 -26 -64 -3 -20 13 -33 17 -29 11 4 -7 2
-12 -6 -12 -12 0 14 -18 52 -36 21 -10 30 -25 30 -52 0 -13 4 -21 8 -18 9 6
181 -138 201 -168 7 -11 27 -32 43 -45 25 -20 32 -22 39 -10 8 12 10 12 18 0
6 -9 10 -10 16 -2 5 9 10 9 20 1 7 -6 24 -13 36 -15 27 -5 49 -31 49 -57 0
-23 -69 -54 -90 -40 -8 6 -14 15 -13 21 2 6 -6 25 -17 43 -21 34 -28 22 -9
-13 8 -16 7 -25 -6 -39 -15 -16 -15 -24 -4 -57 6 -21 19 -48 26 -60 8 -12 13
-28 10 -35 -2 -7 2 -33 8 -58 7 -25 16 -62 20 -83 11 -68 77 -71 111 -5 18 35
13 136 -8 149 -7 5 -7 22 3 58 10 40 10 54 1 59 -6 4 -9 18 -5 30 3 12 10 19
15 16 6 -4 8 1 4 14 -4 11 -2 23 4 27 7 4 9 18 5 32 -3 15 0 31 7 40 33 40 38
143 7 143 -5 0 -9 8 -9 18 0 44 -22 93 -46 102 -15 6 -24 17 -24 31 0 14 -5
19 -15 16 -8 -4 -24 6 -39 23 -14 17 -27 30 -30 30 -3 0 -26 20 -52 45 -25 25
-54 45 -64 45 -10 0 -22 5 -26 11 -8 14 -81 3 -112 -17 -18 -12 -26 -12 -45
-2 -12 7 -28 11 -34 10 -7 -2 -13 4 -13 12 0 9 -16 19 -37 25 -49 14 -60 14
-66 -2z m278 -97 c3 -5 14 -10 24 -10 9 0 32 -16 51 -35 19 -19 41 -35 50 -35
18 0 52 -32 49 -46 -4 -24 3 -46 20 -63 34 -34 38 -50 28 -109 -8 -49 -27 -82
-47 -82 -3 0 -30 22 -60 50 -30 27 -61 50 -67 50 -7 0 -13 4 -13 9 0 13 -111
125 -138 140 -32 17 -30 70 3 95 14 10 33 25 42 32 21 16 49 18 58 4z"/>
<path d="M5040 8045 c0 -8 5 -15 10 -15 6 0 10 7 10 15 0 8 -4 15 -10 15 -5 0
-10 -7 -10 -15z"/>
<path d="M765 8012 c-8 -39 -8 -40 31 -48 22 -4 36 0 54 16 l25 22 -28 -17
c-16 -9 -32 -14 -35 -10 -4 3 -1 10 6 14 7 4 10 14 7 23 -7 17 -35 20 -36 4 0
-6 -4 -2 -8 9 -7 17 -9 16 -16 -13z"/>
<path d="M885 8009 c-4 -6 -5 -12 -2 -15 2 -3 7 2 10 11 7 17 1 20 -8 4z"/>
<path d="M4967 7986 c-3 -8 -2 -18 4 -22 16 -9 22 2 11 21 -8 15 -10 16 -15 1z"/>
<path d="M4850 7976 c0 -9 5 -16 10 -16 6 0 10 4 10 9 0 6 -4 13 -10 16 -5 3
-10 -1 -10 -9z"/>
<path d="M5071 7974 c0 -11 3 -14 6 -6 3 7 2 16 -1 19 -3 4 -6 -2 -5 -13z"/>
<path d="M5115 7980 c3 -5 8 -10 11 -10 2 0 4 5 4 10 0 6 -5 10 -11 10 -5 0
-7 -4 -4 -10z"/>
<path d="M4886 7951 c-3 -5 1 -14 9 -21 12 -10 15 -10 15 3 0 19 -16 31 -24
18z"/>
<path d="M3800 7860 c0 -5 5 -10 10 -10 6 0 10 5 10 10 0 6 -4 10 -10 10 -5 0
-10 -4 -10 -10z"/>
<path d="M4405 7850 c3 -5 11 -10 16 -10 6 0 7 5 4 10 -3 6 -11 10 -16 10 -6
0 -7 -4 -4 -10z"/>
<path d="M5325 7850 c3 -5 8 -10 11 -10 2 0 4 5 4 10 0 6 -5 10 -11 10 -5 0
-7 -4 -4 -10z"/>
<path d="M4358 7836 c-26 -19 -22 -26 16 -26 19 0 36 -6 39 -12 2 -7 8 -10 12
-6 5 4 -4 19 -19 33 -31 29 -26 28 -48 11z"/>
<path d="M4946 7824 c-10 -25 -7 -34 10 -34 9 0 29 -9 46 -21 41 -30 44 -20 2
11 -40 30 -43 44 -8 37 33 -6 18 8 -17 17 -19 4 -29 1 -33 -10z"/>
<path d="M3413 7743 c-7 -2 -13 -11 -13 -19 0 -8 -5 -14 -12 -14 -6 0 -9 -3
-5 -6 11 -11 45 7 50 26 5 20 2 22 -20 13z"/>
<path d="M5241 7743 c-13 -3 -35 -18 -49 -35 -16 -19 -31 -28 -44 -25 -12 4
-18 0 -18 -13 0 -11 -17 -24 -50 -38 -36 -15 -50 -26 -50 -41 0 -22 56 -56 66
-40 4 6 10 6 18 0 16 -14 26 -4 26 26 0 16 6 23 19 23 11 0 28 15 40 35 20 35
21 35 50 21 26 -14 29 -14 37 5 9 20 10 20 37 -5 35 -32 34 -43 -3 -50 -16 -3
-43 -9 -60 -12 -25 -5 -30 -10 -30 -34 0 -36 29 -56 46 -33 12 18 18 14 89
-55 19 -18 44 -36 56 -40 21 -8 50 -70 66 -142 3 -14 18 -37 34 -52 16 -15 29
-34 29 -42 0 -30 23 -66 43 -66 17 0 19 5 14 46 -3 30 -13 55 -30 72 -32 34
-54 106 -39 124 14 18 -7 98 -26 98 -10 0 -13 8 -10 25 3 14 -1 30 -8 36 -18
15 -18 29 0 29 20 0 26 22 17 62 -9 38 -39 78 -59 78 -7 0 -24 8 -39 17 -24
16 -76 19 -115 7 -12 -4 -18 0 -18 10 0 9 -3 15 -7 15 -5 -1 -19 -4 -32 -6z
m-11 -33 c0 -5 -5 -10 -11 -10 -5 0 -7 5 -4 10 3 6 8 10 11 10 2 0 4 -4 4 -10z"/>
<path d="M4669 7718 c-1 -7 -1 -16 0 -20 0 -4 -5 -5 -13 -2 -8 3 -28 -8 -45
-25 -18 -17 -36 -31 -41 -31 -5 0 -12 -9 -15 -21 -5 -13 -12 -18 -22 -14 -20
7 -63 -32 -63 -56 0 -24 21 -29 135 -36 78 -4 106 -9 128 -25 30 -21 48 -18
28 6 -15 18 11 30 28 13 8 -8 11 -7 11 4 0 24 -16 43 -25 29 -5 -8 -12 -2 -21
15 -18 35 -18 51 0 36 10 -8 16 -9 21 -1 3 5 1 10 -4 10 -6 0 -11 5 -11 10 0
18 20 11 45 -16 14 -15 25 -21 25 -15 0 19 -25 39 -73 60 -48 21 -62 35 -62
65 0 22 -24 35 -26 14z"/>
<path d="M3330 7705 c0 -8 4 -15 10 -15 5 0 7 7 4 15 -4 8 -8 15 -10 15 -2 0
-4 -7 -4 -15z"/>
<path d="M4163 7693 c9 -2 25 -2 35 0 9 3 1 5 -18 5 -19 0 -27 -2 -17 -5z"/>
<path d="M4103 7650 c-11 -16 -10 -18 2 -14 8 4 15 12 15 20 0 19 -3 18 -17
-6z"/>
<path d="M4342 7531 c-11 -7 -11 -9 2 -14 10 -4 16 -1 16 8 0 17 -1 17 -18 6z"/>
<path d="M1620 7506 c0 -2 7 -7 16 -10 8 -3 12 -2 9 4 -6 10 -25 14 -25 6z"/>
<path d="M1753 7495 c0 -8 4 -15 9 -15 4 0 8 7 8 15 0 8 -4 15 -8 15 -5 0 -9
-7 -9 -15z"/>
<path d="M4830 7488 c0 -10 4 -17 9 -14 5 3 15 -1 22 -10 11 -13 9 -14 -17 -8
-16 4 -30 11 -32 16 -7 16 -27 7 -39 -17 -6 -14 -8 -25 -3 -25 4 0 11 7 14 15
5 13 10 14 26 5 12 -6 31 -10 43 -9 12 2 32 -3 45 -9 14 -8 22 -9 22 -2 0 5 6
9 12 8 17 -4 38 -31 32 -40 -3 -4 2 -5 10 -2 14 5 14 8 1 21 -8 8 -15 19 -15
24 0 5 -7 9 -15 9 -8 0 -15 5 -15 11 0 6 7 9 14 6 10 -4 13 -1 10 8 -3 8 -11
12 -18 9 -6 -2 -33 2 -59 10 -45 13 -47 13 -47 -6z m83 -25 c-7 -2 -19 -2 -25
0 -7 3 -2 5 12 5 14 0 19 -2 13 -5z"/>
<path d="M1185 7460 c-3 -5 -1 -10 4 -10 6 0 11 5 11 10 0 6 -2 10 -4 10 -3 0
-8 -4 -11 -10z"/>
<path d="M1136 7435 c4 -8 11 -15 16 -15 6 0 5 6 -2 15 -7 8 -14 15 -16 15 -2
0 -1 -7 2 -15z"/>
<path d="M4875 7410 c3 -5 8 -10 11 -10 2 0 4 5 4 10 0 6 -5 10 -11 10 -5 0
-7 -4 -4 -10z"/>
<path d="M1088 7393 c7 -3 16 -2 19 1 4 3 -2 6 -13 5 -11 0 -14 -3 -6 -6z"/>
<path d="M1012 7370 c0 -14 2 -19 5 -12 2 6 2 18 0 25 -3 6 -5 1 -5 -13z"/>
<path d="M650 7370 c0 -5 5 -10 11 -10 5 0 7 5 4 10 -3 6 -8 10 -11 10 -2 0
-4 -4 -4 -10z"/>
<path d="M6450 7350 c0 -5 5 -10 11 -10 5 0 7 5 4 10 -3 6 -8 10 -11 10 -2 0
-4 -4 -4 -10z"/>
<path d="M993 7333 c-7 -2 -9 -11 -6 -19 3 -7 9 -11 14 -8 5 3 9 1 9 -4 0 -12
-35 -43 -42 -37 -4 5 -6 -1 -10 -42 -1 -10 -12 -29 -25 -43 -12 -13 -23 -29
-23 -34 0 -4 9 2 20 15 10 13 19 19 20 12 0 -6 -4 -15 -10 -18 -5 -3 -10 -11
-10 -17 0 -17 89 113 96 139 7 25 -15 62 -33 56z"/>
<path d="M5198 7253 c6 -2 10 -8 7 -13 -6 -9 33 -45 41 -37 10 9 -28 57 -45
56 -10 0 -11 -2 -3 -6z"/>
<path d="M6600 7199 c0 -5 5 -7 10 -4 6 3 10 8 10 11 0 2 -4 4 -10 4 -5 0 -10
-5 -10 -11z"/>
<path d="M4875 7160 c17 -33 25 -36 43 -18 9 9 12 9 12 -1 0 -7 5 -9 10 -6 6
4 17 2 25 -5 8 -7 16 -7 19 -1 6 9 -87 61 -111 61 -11 0 -10 -6 2 -30z"/>
<path d="M4905 7100 c-3 -5 -1 -10 4 -10 6 0 11 5 11 10 0 6 -2 10 -4 10 -3 0
-8 -4 -11 -10z"/>
<path d="M5020 7079 c0 -17 -3 -19 -13 -10 -8 6 -17 8 -20 4 -4 -3 -13 0 -21
6 -15 13 -56 6 -56 -8 0 -19 42 -59 67 -64 69 -14 87 -17 76 -11 -7 3 -9 12
-6 20 3 7 -2 17 -11 20 -11 4 -14 14 -9 35 3 16 3 29 -1 29 -3 0 -6 -10 -6
-21z m-72 -13 c-7 -8 -17 -12 -22 -9 -4 3 -2 9 5 14 22 13 31 11 17 -5z"/>
<path d="M6293 7078 c-11 -13 -25 -38 -31 -56 -10 -30 -9 -35 6 -39 19 -5 45
-60 36 -74 -8 -13 -42 8 -49 31 -3 11 -12 20 -20 20 -7 0 -15 3 -18 8 -2 4 -2
0 1 -8 3 -8 5 -37 6 -65 1 -34 5 -49 14 -47 6 1 12 -2 12 -8 0 -5 6 -10 14
-10 19 0 58 55 62 85 4 39 15 65 27 65 7 0 18 4 26 9 11 7 7 19 -19 60 -18 28
-36 51 -40 51 -4 0 -16 -10 -27 -22z"/>
<path d="M5840 7060 c0 -5 5 -10 10 -10 6 0 10 5 10 10 0 6 -4 10 -10 10 -5 0
-10 -4 -10 -10z"/>
<path d="M5671 6994 c0 -11 3 -14 6 -6 3 7 2 16 -1 19 -3 4 -6 -2 -5 -13z"/>
<path d="M5400 6990 c0 -5 5 -10 11 -10 5 0 7 5 4 10 -3 6 -8 10 -11 10 -2 0
-4 -4 -4 -10z"/>
<path d="M5386 6971 c4 -16 3 -21 -5 -17 -6 4 -11 2 -11 -3 0 -6 4 -11 9 -11
17 0 22 19 11 37 -9 15 -10 14 -4 -6z"/>
<path d="M1116 6947 c3 -10 9 -15 12 -12 3 3 0 11 -7 18 -10 9 -11 8 -5 -6z"/>
<path d="M1540 6920 c0 -5 5 -10 11 -10 5 0 7 5 4 10 -3 6 -8 10 -11 10 -2 0
-4 -4 -4 -10z"/>
<path d="M1035 6906 c-6 -6 -10 -32 -10 -58 0 -32 -4 -48 -12 -48 -7 0 -13 -4
-13 -10 0 -11 20 -13 43 -4 9 3 13 13 10 25 -4 13 0 19 11 19 9 0 16 7 16 15
0 8 -5 15 -11 15 -5 0 -7 4 -4 10 10 16 -18 50 -30 36z"/>
<path d="M5465 6910 c3 -5 8 -10 11 -10 2 0 4 5 4 10 0 6 -5 10 -11 10 -5 0
-7 -4 -4 -10z"/>
<path d="M5127 6896 c-9 -22 4 -62 27 -89 13 -15 26 -24 29 -20 4 3 9 -1 13
-10 5 -14 7 -14 25 1 10 9 19 24 19 34 0 9 8 21 18 27 28 16 2 34 -32 21 -31
-11 -48 -6 -40 13 2 7 -8 17 -25 24 -23 8 -31 8 -34 -1z"/>
<path d="M948 6863 c-8 -10 -18 -25 -22 -33 -7 -13 -6 -13 6 0 7 8 21 23 31
33 10 9 14 17 9 17 -5 0 -16 -8 -24 -17z"/>
<path d="M5846 6772 c4 -31 7 -78 6 -103 -4 -73 48 -191 113 -259 58 -61 79
-95 71 -115 -3 -8 0 -17 5 -21 6 -3 9 -18 6 -33 -3 -14 1 -37 8 -51 8 -14 14
-44 15 -67 0 -24 7 -48 16 -57 17 -18 44 -21 44 -6 0 5 -8 6 -17 3 -15 -6 -16
-5 -3 9 8 9 19 15 25 15 18 -3 16 40 -4 99 -11 33 -20 53 -20 47 -1 -7 -5 -13
-10 -13 -5 0 -8 16 -6 36 2 20 0 46 -5 58 -5 13 -4 30 2 40 7 13 7 17 0 12 -6
-3 -19 5 -30 19 -11 14 -23 25 -27 25 -15 0 -87 85 -101 117 -8 18 -14 44 -14
57 0 14 -6 49 -14 78 -7 29 -11 67 -9 84 6 39 -9 70 -38 77 -20 5 -21 4 -13
-51z m164 -374 c0 -6 -6 -5 -15 2 -8 7 -15 14 -15 16 0 2 7 1 15 -2 8 -4 15
-11 15 -16z m42 -46 c-5 -14 -9 -13 -12 3 -1 6 -7 19 -12 30 l-11 20 20 -20
c11 -11 18 -26 15 -33z"/>
<path d="M5465 6790 c-3 -5 1 -10 10 -10 9 0 13 5 10 10 -3 6 -8 10 -10 10 -2
0 -7 -4 -10 -10z"/>
<path d="M6328 6783 c-21 -5 -24 -43 -7 -76 19 -36 61 -77 73 -70 6 3 8 2 3
-2 -10 -12 22 -45 38 -39 7 3 16 1 20 -5 3 -6 11 -11 17 -11 6 0 8 3 5 6 -3 4
-2 14 3 23 6 13 2 21 -21 36 -19 13 -33 34 -40 59 -6 21 -21 49 -34 62 -25 24
-27 25 -57 17z m132 -152 c8 -16 7 -19 -8 -17 -9 2 -16 6 -14 9 1 4 2 12 2 17
0 16 8 12 20 -9z"/>
<path d="M765 6770 c-3 -5 -1 -10 4 -10 6 0 11 5 11 10 0 6 -2 10 -4 10 -3 0
-8 -4 -11 -10z"/>
<path d="M5690 6770 c0 -5 5 -10 10 -10 6 0 10 5 10 10 0 6 -4 10 -10 10 -5 0
-10 -4 -10 -10z"/>
<path d="M1095 6750 c3 -5 8 -10 11 -10 2 0 4 5 4 10 0 6 -5 10 -11 10 -5 0
-7 -4 -4 -10z"/>
<path d="M1035 6720 c-3 -5 -1 -10 4 -10 6 0 11 5 11 10 0 6 -2 10 -4 10 -3 0
-8 -4 -11 -10z"/>
<path d="M676 6703 c-6 -14 -5 -15 5 -6 7 7 10 15 7 18 -3 3 -9 -2 -12 -12z"/>
<path d="M617 6653 c-4 -3 -7 -11 -7 -17 0 -6 5 -5 12 2 6 6 9 14 7 17 -3 3
-9 2 -12 -2z"/>
<path d="M1120 6630 c0 -5 5 -10 11 -10 5 0 7 5 4 10 -3 6 -8 10 -11 10 -2 0
-4 -4 -4 -10z"/>
<path d="M6496 6603 c-6 -14 -5 -15 5 -6 7 7 10 15 7 18 -3 3 -9 -2 -12 -12z"/>
<path d="M5690 6575 c-11 -13 -10 -20 7 -43 11 -15 24 -26 29 -25 18 4 15 49
-4 66 -17 16 -20 16 -32 2z"/>
<path d="M6056 6568 c-11 -43 -7 -66 14 -71 32 -8 41 21 18 60 -11 18 -21 33
-23 33 -1 0 -5 -10 -9 -22z"/>
<path d="M5590 6570 c0 -5 5 -10 10 -10 6 0 10 5 10 10 0 6 -4 10 -10 10 -5 0
-10 -4 -10 -10z"/>
<path d="M5550 6563 c0 -5 4 -14 9 -21 7 -11 9 -11 14 1 3 8 3 18 0 21 -9 8
-23 7 -23 -1z"/>
<path d="M6252 6540 c0 -19 2 -27 5 -17 2 9 2 25 0 35 -3 9 -5 1 -5 -18z"/>
<path d="M5280 6531 c0 -10 7 -34 15 -52 l14 -34 1 46 c0 33 -5 49 -15 53 -10
3 -15 -1 -15 -13z"/>
<path d="M660 6530 c0 -5 5 -10 10 -10 6 0 10 5 10 10 0 6 -4 10 -10 10 -5 0
-10 -4 -10 -10z"/>
<path d="M6434 6465 c-13 -48 -14 -59 -2 -78 8 -12 20 -41 26 -64 15 -50 24
-53 50 -15 22 31 19 48 -15 80 -17 15 -23 28 -18 40 15 35 17 63 5 77 -21 25
-29 18 -46 -40z"/>
<path d="M1921 6488 c0 -16 -5 -28 -11 -28 -5 0 -10 -5 -10 -12 0 -8 5 -7 16
4 9 9 14 26 11 39 -4 22 -4 22 -6 -3z"/>
<path d="M6230 6469 c0 -11 5 -17 10 -14 6 3 10 -1 10 -9 0 -8 -4 -18 -10 -21
-5 -3 -10 -1 -10 6 0 7 -2 10 -5 7 -7 -7 5 -38 15 -38 12 0 22 49 15 71 -8 25
-25 24 -25 -2z"/>
<path d="M1921 6424 c0 -11 3 -14 6 -6 3 7 2 16 -1 19 -3 4 -6 -2 -5 -13z"/>
<path d="M5600 6426 c0 -14 21 -58 26 -54 8 8 -7 58 -17 58 -5 0 -9 -2 -9 -4z"/>
<path d="M1872 6385 c0 -16 3 -39 8 -50 l9 -20 -1 20 c0 11 -4 34 -8 50 l-8
30 0 -30z"/>
<path d="M1949 6323 c21 -31 51 -44 51 -23 0 6 -5 10 -12 10 -6 0 -23 10 -37
23 l-25 22 23 -32z"/>
<path d="M351 6314 c0 -11 3 -14 6 -6 3 7 2 16 -1 19 -3 4 -6 -2 -5 -13z"/>
<path d="M1915 6320 c3 -5 8 -10 11 -10 2 0 4 5 4 10 0 6 -5 10 -11 10 -5 0
-7 -4 -4 -10z"/>
<path d="M270 6290 c0 -5 5 -10 11 -10 5 0 7 5 4 10 -3 6 -8 10 -11 10 -2 0
-4 -4 -4 -10z"/>
<path d="M1056 6265 c4 -8 11 -15 16 -15 6 0 5 6 -2 15 -7 8 -14 15 -16 15 -2
0 -1 -7 2 -15z"/>
<path d="M6523 6241 c1 -22 12 -28 21 -12 3 5 -1 14 -9 21 -11 9 -14 8 -12 -9z"/>
<path d="M6486 6234 c-9 -24 -7 -28 9 -14 17 14 20 30 6 30 -5 0 -12 -7 -15
-16z"/>
<path d="M1960 6190 c0 -5 5 -10 10 -10 6 0 10 5 10 10 0 6 -4 10 -10 10 -5 0
-10 -4 -10 -10z"/>
<path d="M700 6175 c0 -8 -4 -15 -9 -15 -6 0 -9 -9 -8 -20 1 -11 4 -16 8 -12
10 10 23 62 15 62 -3 0 -6 -7 -6 -15z"/>
<path d="M567 6153 c-4 -3 -7 -11 -7 -17 0 -6 5 -5 12 2 6 6 9 14 7 17 -3 3
-9 2 -12 -2z"/>
<path d="M5760 6150 c0 -5 5 -10 11 -10 5 0 7 5 4 10 -3 6 -8 10 -11 10 -2 0
-4 -4 -4 -10z"/>
<path d="M407 6133 c-4 -3 -7 -11 -7 -17 0 -6 5 -5 12 2 6 6 9 14 7 17 -3 3
-9 2 -12 -2z"/>
<path d="M1991 6107 c2 -1 13 -9 24 -17 19 -14 19 -14 6 3 -7 9 -18 17 -24 17
-6 0 -8 -1 -6 -3z"/>
<path d="M707 6057 c-4 -10 -7 -26 -7 -35 1 -15 2 -15 11 1 6 10 9 25 7 35 -3
16 -4 15 -11 -1z"/>
<path d="M6305 6050 c-3 -5 -1 -10 5 -10 7 0 9 -16 4 -49 -7 -52 -2 -59 43
-66 16 -2 46 -11 68 -19 58 -22 84 -20 95 7 7 18 3 27 -21 49 -16 15 -41 31
-56 34 -16 4 -51 20 -80 36 -32 18 -54 25 -58 18z"/>
<path d="M1635 6020 c-3 -5 -1 -10 4 -10 6 0 11 5 11 10 0 6 -2 10 -4 10 -3 0
-8 -4 -11 -10z"/>
<path d="M353 5985 c-13 -15 -17 -25 -9 -25 7 0 18 11 24 25 14 31 13 31 -15
0z"/>
<path d="M738 5963 c7 -3 16 -2 19 1 4 3 -2 6 -13 5 -11 0 -14 -3 -6 -6z"/>
<path d="M5850 5930 c0 -5 5 -10 10 -10 6 0 10 5 10 10 0 6 -4 10 -10 10 -5 0
-10 -4 -10 -10z"/>
<path d="M5910 5930 c0 -6 5 -10 10 -10 6 0 10 -11 10 -24 0 -26 24 -51 40
-41 23 14 10 51 -25 68 -19 9 -35 12 -35 7z"/>
<path d="M5790 5905 c0 -9 5 -15 11 -13 6 2 11 8 11 13 0 5 -5 11 -11 13 -6 2
-11 -4 -11 -13z"/>
<path d="M2086 5895 c4 -8 8 -15 10 -15 2 0 4 7 4 15 0 8 -4 15 -10 15 -5 0
-7 -7 -4 -15z"/>
<path d="M5740 5889 c0 -24 23 -21 28 4 2 10 -3 17 -12 17 -10 0 -16 -9 -16
-21z"/>
<path d="M5886 5896 c21 -15 30 -14 19 3 -3 6 -14 11 -23 11 -13 0 -13 -2 4
-14z"/>
<path d="M250 5846 c0 -7 -6 -19 -14 -25 -22 -18 -26 -71 -6 -91 9 -9 14 -22
12 -28 -2 -7 2 -10 11 -6 12 4 15 -2 12 -28 -1 -18 2 -38 7 -45 12 -15 0 -36
-16 -30 -19 8 -16 -32 3 -43 10 -5 21 -7 24 -3 11 11 30 -45 22 -64 -16 -35
-12 -74 9 -88 21 -16 30 -8 61 52 13 24 15 25 21 8 5 -11 3 -20 -4 -23 -19 -6
-14 -18 8 -18 11 0 20 4 20 9 0 5 7 7 15 4 12 -5 12 -2 3 19 -11 22 -13 24
-18 8 -6 -15 -7 -15 -12 -2 -4 9 -2 20 4 26 5 5 8 18 5 28 -4 16 -5 15 -6 -3
0 -13 -5 -23 -10 -23 -14 0 -20 25 -10 41 5 9 3 22 -6 36 -8 12 -15 33 -15 47
0 14 -5 28 -10 31 -6 4 -10 18 -9 33 1 15 -3 38 -8 52 -6 14 -8 31 -6 38 3 7
-1 10 -10 7 -19 -8 -81 55 -67 69 13 13 13 26 0 26 -5 0 -10 -6 -10 -14z m60
-190 c0 -2 -7 -9 -15 -16 -12 -10 -15 -10 -15 4 0 9 7 16 15 16 8 0 15 -2 15
-4z m10 -61 c0 -2 -9 -9 -20 -15 -16 -9 -18 -8 -14 5 5 13 34 22 34 10z"/>
<path d="M285 5850 c3 -5 8 -10 11 -10 2 0 4 5 4 10 0 6 -5 10 -11 10 -5 0 -7
-4 -4 -10z"/>
<path d="M428 5819 c-7 -22 3 -49 18 -49 17 0 17 8 0 39 -9 17 -15 20 -18 10z"/>
<path d="M6210 5800 c0 -5 5 -10 11 -10 5 0 7 5 4 10 -3 6 -8 10 -11 10 -2 0
-4 -4 -4 -10z"/>
<path d="M5775 5790 c-3 -5 -1 -10 4 -10 6 0 11 5 11 10 0 6 -2 10 -4 10 -3 0
-8 -4 -11 -10z"/>
<path d="M1050 5724 c0 -8 5 -12 10 -9 6 4 8 11 5 16 -9 14 -15 11 -15 -7z"/>
<path d="M1690 5726 c0 -2 7 -7 16 -10 8 -3 12 -2 9 4 -6 10 -25 14 -25 6z"/>
<path d="M5965 5641 c-3 -5 -1 -12 5 -16 5 -3 10 1 10 9 0 18 -6 21 -15 7z"/>
<path d="M700 5620 c0 -5 5 -10 10 -10 6 0 10 5 10 10 0 6 -4 10 -10 10 -5 0
-10 -4 -10 -10z"/>
<path d="M1390 5582 c0 -4 10 -13 23 -21 22 -14 22 -14 3 8 -20 22 -26 25 -26
13z"/>
<path d="M1372 5515 c-17 -37 -14 -45 4 -12 9 16 14 31 11 33 -2 2 -9 -7 -15
-21z"/>
<path d="M1045 5520 c-3 -5 -1 -10 4 -10 6 0 11 5 11 10 0 6 -2 10 -4 10 -3 0
-8 -4 -11 -10z"/>
<path d="M1150 5476 c0 -9 5 -16 10 -16 6 0 10 4 10 9 0 6 -4 13 -10 16 -5 3
-10 -1 -10 -9z"/>
<path d="M6090 5475 c-7 -9 -11 -18 -8 -20 3 -3 11 1 18 10 7 9 11 18 8 20 -3
3 -11 -1 -18 -10z"/>
<path d="M206 5420 c3 -19 13 -42 20 -50 15 -15 15 -13 -20 70 -3 8 -3 -1 0
-20z"/>
<path d="M1265 5440 c-3 -5 -1 -10 4 -10 6 0 11 5 11 10 0 6 -2 10 -4 10 -3 0
-8 -4 -11 -10z"/>
<path d="M391 5363 c-1 -18 -5 -33 -11 -33 -5 0 -10 -9 -10 -21 0 -11 -4 -17
-10 -14 -11 7 -14 -18 -3 -28 3 -4 7 -41 8 -82 2 -82 -8 -87 -40 -20 -9 19
-21 35 -27 35 -7 0 -7 4 1 14 16 19 3 50 -15 35 -8 -6 -11 -15 -8 -20 3 -5 1
-9 -5 -9 -11 0 -9 -119 2 -137 4 -6 9 -29 12 -51 5 -42 23 -97 24 -74 1 7 6
10 12 6 8 -4 3 -11 -12 -20 -13 -7 -28 -9 -34 -4 -12 9 -85 23 -85 16 0 -3 14
-13 30 -21 17 -9 36 -27 42 -40 9 -19 15 -22 29 -15 14 8 19 6 24 -9 3 -10 3
-25 0 -33 -4 -9 0 -22 8 -29 7 -8 17 -26 20 -41 5 -18 12 -25 21 -22 8 3 20
-4 28 -15 8 -11 26 -23 42 -27 15 -3 34 -17 43 -30 14 -23 65 -54 86 -54 6 0
19 -8 29 -17 18 -16 19 -16 12 12 -4 17 -7 42 -8 58 -1 19 -6 27 -18 27 -10 0
-18 6 -18 14 0 7 -6 18 -13 24 -9 8 -11 30 -7 79 5 51 3 71 -8 78 -8 6 -15 35
-17 67 -2 31 -8 64 -13 74 -8 16 -20 131 -23 222 -1 21 -19 33 -19 12 0 -5 -5
-10 -11 -10 -6 0 -9 6 -6 13 3 8 -4 14 -20 15 -16 1 -22 -2 -17 -9 4 -7 1 -10
-7 -7 -23 8 -23 38 0 38 15 0 19 4 14 18 -5 13 0 11 20 -7 15 -14 27 -20 27
-13 0 6 -12 20 -27 32 -16 12 -31 29 -35 38 -4 11 -7 6 -7 -15z m-80 -300 c0
-12 2 -13 6 -5 4 10 8 9 18 -5 9 -13 10 -22 3 -30 -11 -14 -38 -18 -39 -5 -4
41 -3 62 3 62 4 0 8 -8 9 -17z m14 -143 c-3 -5 -11 -10 -16 -10 -6 0 -7 5 -4
10 3 6 11 10 16 10 6 0 7 -4 4 -10z m35 -29 c0 -6 -4 -12 -8 -15 -5 -3 -9 1
-9 9 0 8 4 15 9 15 4 0 8 -4 8 -9z m27 -86 c0 -8 -4 -12 -9 -9 -5 3 -6 10 -3
15 9 13 12 11 12 -6z"/>
<path d="M320 5351 c0 -5 7 -11 15 -15 9 -3 15 0 15 9 0 8 -7 15 -15 15 -8 0
-15 -4 -15 -9z"/>
<path d="M870 5350 c0 -5 5 -10 10 -10 6 0 10 5 10 10 0 6 -4 10 -10 10 -5 0
-10 -4 -10 -10z"/>
<path d="M540 5319 c0 -5 5 -7 10 -4 6 3 10 8 10 11 0 2 -4 4 -10 4 -5 0 -10
-5 -10 -11z"/>
<path d="M114 5251 c10 -4 24 -18 32 -32 9 -16 13 -19 14 -8 0 19 -31 49 -51
48 -9 0 -7 -3 5 -8z"/>
<path d="M117 5203 c-3 -5 1 -14 9 -21 12 -10 14 -10 14 2 0 17 -16 30 -23 19z"/>
<path d="M83 5165 c-9 -24 1 -27 15 -5 8 13 8 20 2 20 -6 0 -13 -7 -17 -15z"/>
<path d="M155 5170 c3 -5 1 -10 -5 -10 -7 0 -10 -6 -7 -12 2 -7 -2 -26 -10
-41 -16 -32 -5 -56 25 -55 9 0 33 -5 52 -11 l35 -10 -24 20 c-18 15 -21 23
-13 31 16 16 15 31 0 25 -7 -2 -19 3 -26 12 -12 15 -13 14 -8 -1 2 -9 -1 -18
-7 -21 -8 -3 -12 6 -11 24 1 39 10 46 34 24 11 -10 20 -13 20 -8 0 6 -11 18
-25 27 -28 18 -39 21 -30 6z"/>
<path d="M1225 5171 c-3 -5 -1 -12 5 -16 5 -3 10 1 10 9 0 18 -6 21 -15 7z"/>
<path d="M2266 5155 c25 -19 40 -19 24 0 -7 8 -20 15 -28 15 -13 0 -12 -3 4
-15z"/>
<path d="M1535 5130 c10 -11 20 -18 23 -16 5 6 -23 36 -34 36 -4 0 1 -9 11
-20z"/>
<path d="M1655 4980 c3 -5 14 -10 23 -10 15 0 15 2 2 10 -20 13 -33 13 -25 0z"/>
<path d="M1155 4960 c-3 -6 1 -7 9 -4 18 7 21 14 7 14 -6 0 -13 -4 -16 -10z"/>
<path d="M1010 4819 c0 -5 5 -7 10 -4 6 3 10 8 10 11 0 2 -4 4 -10 4 -5 0 -10
-5 -10 -11z"/>
<path d="M1383 4809 c4 -13 7 -27 7 -31 0 -4 8 -4 17 -1 12 5 15 2 10 -10 -4
-11 -1 -17 9 -17 12 0 14 7 9 33 -9 38 -5 33 -34 42 -21 7 -23 5 -18 -16z"/>
<path d="M1600 4750 c0 -5 5 -10 11 -10 5 0 7 5 4 10 -3 6 -8 10 -11 10 -2 0
-4 -4 -4 -10z"/>
<path d="M976 4621 c-16 -16 -25 -34 -22 -40 4 -6 2 -11 -5 -11 -10 0 -10 -3
-1 -12 15 -15 25 -5 25 27 0 15 8 32 20 40 12 8 18 17 16 20 -3 2 -18 -8 -33
-24z"/>
<path d="M1680 4630 c0 -5 5 -10 11 -10 5 0 7 5 4 10 -3 6 -8 10 -11 10 -2 0
-4 -4 -4 -10z"/>
<path d="M1008 4585 c-2 -19 0 -35 4 -35 4 0 8 16 8 35 0 19 -2 35 -4 35 -2 0
-6 -16 -8 -35z"/>
<path d="M1101 4604 c0 -11 3 -14 6 -6 3 7 2 16 -1 19 -3 4 -6 -2 -5 -13z"/>
<path d="M2780 4606 c0 -9 5 -16 10 -16 6 0 10 4 10 9 0 6 -4 13 -10 16 -5 3
-10 -1 -10 -9z"/>
<path d="M1612 4598 c-14 -14 12 -37 41 -38 17 0 17 1 0 25 -21 28 -25 29 -41
13z m33 -18 c3 -6 -1 -7 -9 -4 -18 7 -21 14 -7 14 6 0 13 -4 16 -10z"/>
<path d="M2906 4591 c-3 -5 1 -14 8 -20 16 -13 32 2 21 19 -8 12 -22 13 -29 1z"/>
<path d="M2230 4570 c0 -5 5 -10 11 -10 5 0 7 5 4 10 -3 6 -8 10 -11 10 -2 0
-4 -4 -4 -10z"/>
<path d="M2837 4554 c-4 -4 -7 -14 -7 -23 0 -11 3 -12 11 -4 6 6 10 16 7 23
-2 6 -7 8 -11 4z"/>
<path d="M1965 4540 c-4 -6 -1 -18 7 -27 7 -10 8 -14 1 -10 -27 16 2 -35 39
-68 40 -37 66 -39 48 -5 -8 16 -8 18 4 14 9 -3 14 -11 13 -17 -1 -6 6 -13 15
-15 27 -5 11 27 -18 39 -13 4 -32 22 -43 40 -23 38 -57 63 -66 49z m75 -74 c9
-12 8 -15 -9 -13 -21 1 -26 8 -14 20 9 9 9 9 23 -7z"/>
<path d="M970 4527 c0 -7 9 -13 20 -13 11 0 20 1 20 3 0 1 -9 7 -20 13 -15 8
-20 8 -20 -3z"/>
<path d="M3018 4513 c7 -3 16 -2 19 1 4 3 -2 6 -13 5 -11 0 -14 -3 -6 -6z"/>
<path d="M2382 4488 c-17 -17 -15 -31 6 -45 24 -15 76 -6 59 11 -46 42 -53 46
-65 34z m18 -18 c0 -5 -5 -10 -11 -10 -5 0 -7 5 -4 10 3 6 8 10 11 10 2 0 4
-4 4 -10z"/>
<path d="M2860 4490 c0 -5 7 -10 16 -10 8 0 12 5 9 10 -3 6 -10 10 -16 10 -5
0 -9 -4 -9 -10z"/>
<path d="M2940 4475 c0 -2 10 -10 23 -16 20 -11 21 -11 8 4 -13 16 -31 23 -31
12z"/>
<path d="M3104 4458 c-4 -7 -4 -10 1 -6 4 4 15 2 24 -5 14 -11 14 -10 2 6 -16
20 -18 21 -27 5z"/>
<path d="M2968 4433 c-27 -14 -48 -32 -48 -40 0 -7 -5 -13 -11 -13 -7 0 0 -11
16 -25 18 -17 25 -33 22 -45 -3 -11 -1 -20 4 -20 5 0 9 5 9 10 0 6 7 10 16 10
8 0 12 -4 9 -10 -3 -5 4 -10 15 -10 18 0 21 4 16 23 -5 20 0 24 37 35 51 14
78 31 60 39 -7 2 -13 9 -13 14 0 6 5 7 12 3 7 -4 8 -3 4 5 -4 6 -16 9 -27 6
-13 -4 -26 2 -43 19 -13 14 -25 26 -27 26 -2 0 -25 -12 -51 -27z"/>
<path d="M2256 4442 c-3 -5 1 -9 9 -9 8 0 12 4 9 9 -3 4 -7 8 -9 8 -2 0 -6 -4
-9 -8z"/>
<path d="M2860 4430 c8 -5 20 -10 25 -10 6 0 3 5 -5 10 -8 5 -19 10 -25 10 -5
0 -3 -5 5 -10z"/>
<path d="M685 4409 c-10 -15 3 -25 16 -12 7 7 7 13 1 17 -6 3 -14 1 -17 -5z"/>
<path d="M864 4399 c-10 -17 13 -36 27 -22 12 12 4 33 -11 33 -5 0 -12 -5 -16
-11z"/>
<path d="M2540 4401 c0 -5 5 -13 10 -16 6 -3 10 -2 10 4 0 5 -4 13 -10 16 -5
3 -10 2 -10 -4z"/>
<path d="M2411 4366 c-10 -11 -10 -19 -1 -33 11 -17 11 -17 5 1 -3 11 0 23 7
27 7 4 10 11 7 14 -4 3 -12 -1 -18 -9z"/>
<path d="M1081 4344 c13 -17 26 -30 28 -27 3 2 -8 16 -24 31 l-28 27 24 -31z"/>
<path d="M1780 4340 c0 -5 5 -10 11 -10 6 0 4 -7 -5 -15 -12 -12 -13 -21 -4
-39 10 -24 54 -41 63 -25 3 4 25 6 50 4 24 -3 46 -1 49 4 9 14 -16 29 -54 33
-23 2 -34 8 -32 17 1 7 -5 19 -15 27 -21 16 -63 18 -63 4z"/>
<path d="M2020 4320 c0 -5 5 -10 10 -10 6 0 10 5 10 10 0 6 -4 10 -10 10 -5 0
-10 -4 -10 -10z"/>
<path d="M867 4292 c-9 -9 -14 -26 -12 -37 2 -11 4 -28 4 -37 2 -30 26 -20 44
18 28 58 2 98 -36 56z"/>
<path d="M1300 4279 c0 -11 5 -17 10 -14 6 3 10 13 10 21 0 8 -4 14 -10 14 -5
0 -10 -9 -10 -21z"/>
<path d="M3216 4284 c-3 -8 -10 -13 -15 -9 -5 3 -13 0 -17 -6 -4 -7 -3 -9 4
-5 6 3 13 2 16 -3 3 -5 -1 -12 -10 -15 -10 -4 -14 -12 -10 -23 4 -9 1 -20 -6
-25 -10 -6 -9 -8 3 -8 18 0 42 24 33 33 -3 3 3 3 15 0 15 -4 22 1 27 21 3 14
4 33 0 41 -7 20 -32 19 -40 -1z m30 -20 c-3 -9 -6 -21 -6 -27 0 -6 -6 -2 -14
8 -16 22 -12 35 11 35 10 0 13 -6 9 -16z"/>
<path d="M1119 4268 c15 -21 31 -23 31 -6 0 6 -3 8 -7 5 -3 -4 -13 -1 -22 6
-14 11 -14 10 -2 -5z"/>
<path d="M1500 4270 c0 -5 5 -10 11 -10 5 0 7 5 4 10 -3 6 -8 10 -11 10 -2 0
-4 -4 -4 -10z"/>
<path d="M2805 4266 c-11 -6 -22 -13 -25 -16 -18 -18 -54 -29 -75 -24 -21 5
-24 3 -18 -12 4 -10 2 -15 -4 -11 -13 8 -53 -46 -53 -71 0 -21 32 -24 52 -4 7
7 20 12 29 12 9 0 30 15 47 34 17 19 33 32 35 29 3 -3 13 12 22 32 18 44 17
47 -10 31z"/>
<path d="M1196 4253 c5 -5 12 -12 16 -18 4 -6 8 -2 8 8 0 9 -7 17 -17 17 -9 0
-12 -3 -7 -7z"/>
<path d="M1250 4240 c0 -5 5 -10 10 -10 6 0 10 5 10 10 0 6 -4 10 -10 10 -5 0
-10 -4 -10 -10z"/>
<path d="M3138 4243 c6 -2 18 -2 25 0 6 3 1 5 -13 5 -14 0 -19 -2 -12 -5z"/>
<path d="M1010 4230 c0 -21 30 -70 43 -69 9 0 9 2 0 6 -7 2 -13 14 -13 25 0
10 -7 26 -15 34 -9 9 -15 11 -15 4z"/>
<path d="M3076 4231 c-3 -4 1 -17 8 -27 13 -17 14 -17 13 9 -2 27 -11 35 -21
18z"/>
<path d="M980 4203 c0 -22 2 -25 10 -13 13 20 13 40 0 40 -5 0 -10 -12 -10
-27z"/>
<path d="M897 4203 c-13 -12 -6 -58 13 -98 11 -22 19 -50 20 -62 0 -13 4 -23
9 -23 5 0 17 -7 26 -16 15 -15 21 -15 58 -3 23 8 44 13 47 12 4 -1 5 86 1 107
-1 2 -6 -1 -13 -8 -7 -7 -17 -8 -27 -3 -9 5 -20 10 -26 11 -5 0 -9 12 -8 25 1
18 -6 27 -28 37 -16 7 -29 16 -29 20 0 10 -34 10 -43 1z"/>
<path d="M1196 4153 c-6 -14 -5 -15 5 -6 7 7 10 15 7 18 -3 3 -9 -2 -12 -12z"/>
<path d="M767 4153 c-4 -3 -7 -11 -7 -17 0 -6 5 -5 12 2 6 6 9 14 7 17 -3 3
-9 2 -12 -2z"/>
<path d="M2030 4121 c-8 -6 -14 -24 -13 -45 1 -36 -18 -63 -37 -51 -5 3 -10
13 -10 21 0 18 -19 18 -26 0 -9 -24 -45 -27 -51 -5 -3 10 -12 19 -20 19 -16 0
-15 -39 5 -115 13 -48 10 -52 -20 -31 -26 18 -38 20 -38 6 0 -5 7 -10 16 -10
12 0 14 -5 9 -17 -4 -10 -8 -27 -10 -38 -1 -11 -10 -22 -20 -24 -12 -2 -16 1
-12 12 5 12 1 13 -24 4 -43 -17 -35 -26 21 -23 60 3 84 20 69 48 -6 11 -8 22
-5 26 3 3 6 0 6 -7 0 -7 4 -10 9 -6 6 3 15 -3 20 -12 10 -17 12 -17 25 0 7 9
18 17 24 17 5 0 13 7 16 16 4 10 13 13 25 9 46 -14 106 40 79 73 -11 14 -11
15 7 7 11 -4 30 -9 43 -9 12 -1 22 -4 22 -8 0 -5 4 -8 9 -8 13 0 9 40 -4 41
-5 1 -18 0 -28 0 -22 -3 -34 27 -17 42 10 9 11 9 6 0 -3 -6 -2 -14 4 -18 5 -3
10 3 10 14 0 13 -7 21 -16 21 -9 0 -21 14 -27 30 -12 31 -22 36 -47 21z m-79
-133 c26 -32 24 -45 -8 -53 -21 -5 -24 -9 -13 -14 14 -5 14 -8 -2 -23 -17 -17
-23 -11 -19 15 0 4 -3 7 -8 7 -5 0 -8 11 -8 25 0 13 3 22 8 19 5 -3 9 6 9 20
0 32 16 33 41 4z"/>
<path d="M3250 4118 c0 -3 7 -21 15 -39 16 -34 16 -34 10 -4 -6 26 -25 60 -25
43z"/>
<path d="M3153 4059 c-20 -16 -41 -29 -47 -29 -6 0 -5 4 3 9 8 5 9 11 3 15 -5
3 -12 -1 -15 -9 -3 -7 -22 -17 -41 -20 -27 -6 -39 -2 -55 14 -26 26 -67 27
-81 2 -13 -25 -13 -31 0 -31 6 0 10 6 10 13 0 7 13 13 30 13 20 1 30 -3 30
-13 0 -8 4 -12 9 -8 12 7 54 -52 46 -64 -8 -15 14 -24 29 -12 7 6 16 8 19 5 3
-4 14 -3 24 1 10 5 25 7 33 6 9 -1 25 8 37 19 12 11 29 20 38 20 8 0 15 4 15
10 0 5 6 7 14 4 32 -12 28 16 -10 74 -1 2 -14 5 -28 6 -17 2 -39 -7 -63 -25z"/>
<path d="M2221 4033 c0 -11 3 -13 6 -5 2 6 11 12 19 12 12 0 12 -4 2 -19 -7
-11 -16 -18 -20 -15 -4 3 -16 0 -25 -5 -13 -7 -14 -10 -4 -11 11 0 11 -4 -2
-18 -16 -18 -15 -19 33 -21 49 -2 50 -2 50 28 0 25 -3 29 -17 24 -16 -6 -16
-5 -4 10 7 9 18 14 25 11 6 -3 2 2 -8 10 -27 21 -56 21 -55 -1z"/>
<path d="M6022 4023 c-24 -16 -45 -38 -49 -50 -3 -13 -8 -23 -12 -23 -4 0 -7
-8 -8 -17 -1 -10 -6 -36 -12 -58 -7 -28 -7 -58 0 -98 10 -57 43 -127 60 -127
23 0 60 -79 66 -143 6 -70 -4 -97 -36 -97 -9 0 -27 -13 -41 -30 -18 -22 -38
-32 -73 -39 -26 -5 -56 -16 -66 -25 -12 -11 -36 -16 -73 -16 -35 0 -68 -7 -86
-17 -30 -17 -31 -17 -84 18 -105 71 -98 68 -359 124 -98 21 -142 25 -280 24
-240 -1 -344 -16 -456 -69 -25 -12 -52 -20 -60 -18 -8 2 -27 32 -41 67 -33 79
-56 93 -46 29 4 -23 11 -53 15 -66 15 -40 11 -80 -10 -92 -11 -5 -47 -10 -81
-10 -88 0 -136 -30 -70 -43 34 -7 39 -23 11 -32 -38 -12 -221 -204 -221 -232
0 -10 -11 -41 -24 -69 -13 -27 -32 -74 -41 -104 -22 -68 -33 -82 -57 -74 -10
3 -24 1 -31 -4 -7 -5 -49 -19 -95 -31 -45 -12 -119 -36 -165 -54 -76 -29 -84
-36 -104 -77 -46 -90 -25 -237 58 -417 16 -34 29 -66 29 -71 0 -10 88 -148
137 -215 15 -20 39 -45 53 -54 42 -28 65 -65 65 -105 0 -35 -2 -38 -27 -38
-17 0 -31 -8 -38 -19 -13 -25 -13 -51 0 -51 5 0 9 3 9 8 -5 30 3 42 29 42 15
0 33 5 40 12 15 15 16 48 2 48 -5 0 -10 5 -10 11 0 5 5 7 10 4 6 -4 17 -2 24
4 19 16 88 -13 80 -34 -6 -14 -18 -19 -37 -16 -16 2 -46 -62 -37 -79 6 -11 5
-21 -2 -28 -6 -6 -8 -18 -5 -26 7 -18 47 -22 47 -5 0 5 4 8 10 4 5 -3 18 3 30
15 25 25 37 25 45 0 8 -24 -1 -40 -21 -40 -8 0 -14 -4 -14 -10 0 -5 -7 -10
-15 -10 -9 0 -35 -9 -57 -20 -23 -11 -49 -20 -57 -20 -23 0 -127 -120 -157
-181 -16 -31 -30 -80 -35 -123 -4 -39 -13 -84 -19 -101 -14 -36 -14 -233 0
-270 17 -44 13 -85 -8 -85 -19 0 -62 39 -62 56 0 5 -7 22 -15 38 -10 19 -14
52 -13 101 2 65 -1 78 -27 121 -20 33 -44 56 -71 69 -41 20 -56 42 -70 100
-16 70 -54 108 -54 54 0 -26 -15 -24 -37 4 -10 13 -30 30 -43 37 -14 7 -28 18
-32 24 -5 8 -8 7 -8 -1 0 -13 75 -133 81 -130 3 1 1 -2 -3 -7 -5 -6 -8 -17 -8
-26 0 -9 -8 -24 -17 -33 -18 -15 -22 -17 -43 -17 -15 0 -12 -30 3 -31 6 0 33
0 60 1 54 2 57 -6 22 -44 -14 -15 -25 -31 -25 -37 0 -26 72 6 106 48 20 25 24
26 38 13 11 -12 16 -46 18 -152 2 -76 6 -138 11 -138 4 0 7 -11 7 -25 0 -14 5
-25 10 -25 6 0 18 -17 27 -38 34 -73 131 -148 177 -136 21 5 29 0 46 -28 38
-62 35 -64 -112 -67 -73 -1 -167 -4 -208 -6 -41 -1 -95 -4 -120 -4 l-45 -2 25
-20 c23 -20 34 -21 278 -18 l254 3 23 -26 c13 -15 24 -30 26 -35 5 -11 100
-73 112 -73 9 0 39 -12 124 -50 22 -10 70 -24 105 -31 34 -6 72 -15 83 -20 11
-4 104 -15 207 -25 183 -16 560 -16 823 1 101 6 232 31 240 46 4 5 17 9 29 9
13 0 35 9 49 20 30 24 35 24 56 7 24 -21 172 -57 230 -57 l51 0 0 55 0 54 -60
-4 c-59 -4 -80 7 -39 20 18 6 20 13 16 41 -5 30 -2 35 25 49 17 8 32 14 33 13
0 -2 6 -14 12 -28 11 -24 12 -24 12 12 1 29 -2 36 -14 32 -8 -4 -15 -2 -15 2
0 5 -3 20 -7 33 -5 20 -3 22 16 16 18 -6 21 -3 21 25 0 27 -3 32 -20 27 -30
-8 -46 18 -30 48 7 13 16 22 21 20 4 -3 10 1 13 7 3 7 4 1 1 -14 -4 -23 -1
-29 21 -34 27 -7 44 7 44 37 0 8 15 33 34 54 41 45 62 42 72 -12 4 -21 14 -44
23 -50 13 -11 9 -12 -24 -7 -28 4 -46 1 -60 -10 -18 -14 1 -16 219 -15 l238 0
24 29 c28 32 30 52 9 70 -8 7 -13 16 -10 20 3 5 -1 11 -7 13 -10 4 -10 6 0 6
6 1 12 5 12 11 0 5 -7 6 -17 3 -11 -4 -14 -3 -9 5 4 7 1 12 -7 12 -9 0 -17 13
-20 33 -13 72 -20 97 -27 97 -12 0 -30 49 -24 65 4 10 1 14 -7 12 -8 -2 -4 1
9 7 26 12 29 26 5 26 -33 1 -59 24 -60 55 -4 73 -9 100 -17 97 -5 -2 -13 3
-18 12 -5 9 -15 16 -23 16 -9 0 -12 6 -9 15 5 11 2 13 -10 9 -9 -3 -16 -2 -16
4 0 6 6 13 13 15 7 3 5 6 -5 6 -16 1 -23 12 -19 34 0 4 -6 7 -14 7 -8 0 -15
-4 -15 -10 0 -5 -6 -10 -14 -10 -17 0 -41 28 -32 37 4 4 11 1 16 -7 7 -11 11
-8 21 13 7 15 20 27 31 27 10 0 18 6 18 14 0 8 5 18 12 22 6 4 8 3 5 -3 -4 -6
-1 -13 7 -16 9 -4 16 3 20 16 8 32 7 49 -3 42 -5 -3 -11 3 -13 12 -3 13 -9 7
-21 -19 -11 -26 -22 -38 -36 -38 -12 0 -21 -6 -21 -12 -1 -8 -6 -5 -15 5 -14
19 -49 20 -51 2 -1 -18 -16 -45 -24 -45 -5 0 -11 14 -15 31 -5 23 -3 34 11 43
20 15 13 46 -10 46 -8 0 -22 -10 -30 -22 -11 -15 -26 -22 -47 -23 -31 0 -41
-9 -54 -50 -6 -20 -7 -20 -21 -1 -8 11 -14 32 -14 47 0 14 -7 32 -15 39 -8 7
-15 20 -15 29 0 10 -11 39 -24 67 -20 43 -54 149 -89 277 l-10 39 89 87 c89
87 165 184 179 231 4 14 16 35 25 47 10 13 23 53 30 90 7 38 18 79 26 93 7 14
15 77 17 140 3 68 10 116 16 118 6 2 11 23 11 47 0 24 5 47 10 50 13 8 50 89
50 109 0 8 18 41 39 74 22 33 58 103 80 156 36 86 42 113 56 249 16 147 16
155 -4 242 -34 156 -38 166 -79 209 -22 22 -45 51 -51 63 -18 36 -13 115 9
143 28 36 25 55 -16 92 -54 50 -73 57 -144 58 -55 0 -73 -4 -108 -27z m182
-54 c32 -25 33 -55 4 -87 -36 -38 -31 -111 11 -159 55 -66 104 -145 113 -187
13 -57 27 -209 20 -220 -3 -6 -7 -39 -9 -74 -2 -35 -8 -73 -14 -84 -6 -11 -17
-45 -25 -76 -8 -31 -18 -59 -22 -62 -19 -13 -52 -70 -52 -89 0 -11 -9 -25 -20
-31 -11 -6 -20 -17 -20 -25 0 -8 -4 -15 -9 -15 -5 0 -11 -8 -15 -17 -9 -29
-46 -87 -64 -103 -9 -9 -18 -22 -20 -30 -5 -24 -19 -33 -39 -26 -17 7 -16 9 5
26 25 21 29 40 7 40 -22 0 -38 36 -25 59 8 16 6 21 -8 26 -27 9 -56 54 -43 69
8 9 0 25 -29 60 -65 79 -98 167 -91 244 0 7 17 20 36 29 33 16 37 16 51 1 9
-9 17 -29 17 -44 0 -55 56 -154 105 -184 29 -19 50 -39 82 -80 l19 -25 31 31
31 31 -24 23 c-20 19 -24 31 -20 60 4 33 3 34 -11 16 -8 -10 -17 -24 -19 -30
-2 -7 -12 -4 -28 6 -46 33 -58 45 -69 69 -5 13 -14 31 -19 39 -4 8 -15 37 -24
64 -15 46 -15 52 1 78 21 36 46 32 50 -7 2 -16 13 -43 25 -59 12 -17 27 -40
32 -51 6 -11 21 -25 34 -31 13 -7 27 -17 30 -23 7 -11 51 -3 51 10 0 4 -6 12
-14 16 -17 10 -67 77 -91 122 -17 34 -16 94 3 113 6 6 23 0 47 -16 68 -46 66
-6 -2 65 -25 27 -36 48 -40 80 -6 60 -22 98 -53 135 -70 82 -93 191 -58 275
27 63 120 89 172 48z m-1069 -598 c44 -11 92 -22 108 -26 15 -3 27 -10 27 -16
0 -8 -26 -10 -87 -5 -119 9 -444 10 -465 1 -43 -17 -8 -22 140 -19 167 2 242
-7 432 -53 58 -14 153 -36 212 -48 58 -13 111 -26 117 -29 6 -4 11 -30 11 -57
0 -30 8 -65 20 -90 24 -47 43 -44 28 5 -12 39 -2 146 14 146 23 0 98 -67 114
-102 9 -21 26 -45 36 -55 11 -10 29 -36 40 -57 11 -22 29 -47 39 -55 11 -9 22
-29 25 -46 3 -16 9 -32 14 -35 5 -3 11 -15 13 -25 2 -11 9 -39 16 -63 10 -35
9 -46 -2 -62 -8 -11 -16 -17 -20 -14 -9 9 -29 -36 -23 -52 3 -8 13 -14 22 -14
31 0 84 24 84 37 0 7 7 13 16 13 14 0 14 -2 3 -16 -7 -9 -12 -29 -11 -45 2
-28 -11 -39 -23 -19 -8 13 -42 13 -50 -1 -4 -5 0 -18 9 -28 21 -23 20 -38 -3
-51 -22 -11 -36 1 -28 25 3 7 -1 21 -8 32 -13 17 -15 17 -31 1 -13 -13 -15
-20 -6 -30 7 -9 8 -19 2 -28 -14 -21 -12 -58 3 -63 9 -3 9 -9 -1 -26 -9 -15
-10 -27 -2 -41 15 -28 12 -67 -5 -74 -10 -4 -15 -20 -15 -51 0 -54 -17 -96
-31 -74 -4 8 -6 24 -3 35 3 13 -2 34 -12 49 -17 25 -19 26 -31 9 -8 -11 -11
-31 -7 -54 4 -24 1 -47 -9 -66 l-15 -29 -13 28 c-7 15 -16 27 -20 27 -5 0 -6
6 -3 14 6 17 -32 41 -40 27 -4 -5 -2 -21 4 -36 8 -21 6 -36 -12 -73 -12 -26
-21 -55 -20 -65 1 -10 -2 -26 -6 -34 -13 -22 -48 85 -51 153 -1 11 -7 29 -15
40 -14 18 -15 18 -26 -11 -7 -19 -8 -36 -2 -50 13 -26 14 -167 2 -163 -5 2
-20 23 -32 48 -13 25 -30 45 -38 45 -12 0 -14 -18 -11 -112 2 -74 -1 -113 -7
-113 -16 0 -22 14 -32 68 -19 104 -33 144 -66 192 -19 27 -34 52 -34 55 0 7
-70 106 -101 142 -36 43 -148 122 -190 134 -26 8 -42 8 -58 0 -28 -15 -27 -41
2 -41 36 0 87 -37 173 -125 70 -72 86 -96 123 -181 24 -55 48 -108 53 -119 18
-33 45 -177 43 -226 -5 -88 -48 -183 -114 -249 -60 -60 -209 -134 -317 -157
-68 -15 -82 -15 -164 -1 -50 9 -110 26 -133 37 -24 12 -49 21 -56 21 -24 0
-96 39 -120 64 -24 26 -24 26 -3 26 18 0 22 6 22 34 0 19 5 38 10 41 16 10 0
26 -20 20 -24 -8 -80 60 -80 96 0 15 -6 29 -12 32 -26 9 2 19 34 13 23 -5 40
-18 56 -42 12 -20 22 -40 22 -45 0 -5 3 -9 8 -9 4 0 18 -10 32 -23 33 -31 88
-62 95 -55 9 9 -35 79 -84 132 -28 31 -40 51 -33 54 13 4 114 -69 135 -97 15
-21 130 -89 164 -97 25 -7 24 -5 -13 44 -22 28 -45 51 -53 51 -13 1 -24 10
-111 93 -19 18 -55 47 -79 63 -24 17 -48 40 -52 53 -12 32 10 28 62 -12 24
-18 55 -37 69 -41 14 -4 36 -16 49 -26 13 -11 29 -19 36 -19 6 0 19 -8 28 -17
8 -10 42 -31 74 -47 32 -16 75 -38 95 -48 21 -10 61 -22 90 -25 l53 -6 -30 24
c-16 13 -72 45 -125 72 -121 60 -147 76 -185 109 -16 15 -43 33 -60 40 -30 12
-45 25 -45 41 0 11 41 -2 61 -19 8 -8 28 -14 44 -14 16 0 37 -8 48 -17 14 -13
41 -19 98 -22 79 -3 100 6 57 26 -67 30 -188 83 -225 99 -24 9 -43 21 -43 26
0 4 -6 8 -12 8 -7 1 -26 7 -43 15 -29 13 -29 13 20 9 52 -5 83 6 71 24 -4 6
-14 8 -22 5 -10 -4 -32 10 -62 39 -26 25 -62 51 -79 58 -37 14 -44 30 -14 30
25 0 52 27 45 45 -7 19 -57 35 -86 28 -43 -11 -216 -105 -240 -130 -20 -22
-23 -34 -22 -104 1 -44 7 -85 13 -93 6 -7 22 -46 36 -86 14 -40 29 -78 34 -84
5 -6 19 -38 31 -70 16 -42 37 -73 73 -107 53 -50 56 -66 13 -55 -52 13 -120
98 -189 236 -37 73 -67 139 -67 147 0 8 -6 29 -14 46 -51 120 -51 121 37 210
39 40 85 83 102 94 25 18 27 23 16 37 -7 9 -28 16 -47 16 -18 0 -36 5 -40 11
-4 7 -16 1 -34 -16 -36 -34 -94 -44 -120 -20 -26 23 -25 45 0 52 21 6 26 18
11 28 -5 3 -12 1 -16 -5 -23 -37 -66 22 -47 65 6 14 8 25 4 26 -58 6 -63 15
-30 61 10 14 9 20 -5 35 -21 24 -26 135 -7 158 28 34 56 3 51 -59 l-2 -30 26
38 c14 20 25 41 25 47 0 5 -16 17 -35 25 -19 8 -35 21 -35 28 0 8 -10 16 -22
18 -16 2 -22 9 -20 23 5 44 27 102 47 130 12 17 40 61 63 99 52 87 106 144
185 198 64 43 87 48 163 34 38 -7 42 -6 47 15 4 14 0 30 -9 41 -9 9 -13 21 -9
27 6 10 82 36 135 46 13 2 37 9 54 15 101 32 346 38 461 11z m665 -170 c0 -38
-13 -46 -35 -21 -21 23 -13 50 15 50 15 0 20 -7 20 -29z m-1942 -567 c2 -14
-6 -29 -22 -42 -33 -25 -32 -28 4 -35 26 -6 29 -9 21 -29 -4 -12 -19 -25 -31
-28 -13 -3 -25 -11 -28 -18 -4 -14 14 -17 22 -3 9 14 86 19 86 5 0 -6 -27 -30
-60 -52 -34 -22 -56 -43 -51 -46 5 -3 16 -3 25 0 8 3 31 0 51 -6 35 -12 36
-13 19 -31 -14 -15 -15 -22 -6 -31 10 -10 17 -10 33 0 12 8 23 11 26 8 10 -9
-18 -36 -37 -36 -10 0 -25 -11 -33 -23 -9 -13 -29 -30 -47 -37 -29 -12 -37
-39 -9 -31 8 2 22 6 32 9 15 4 18 0 15 -19 -3 -21 1 -24 27 -21 l30 2 -43 -38
c-42 -38 -45 -52 -10 -52 10 0 18 -5 18 -11 0 -5 5 -7 10 -4 6 4 8 11 5 16 -8
12 7 12 38 0 39 -15 40 -38 3 -75 -18 -19 -43 -39 -55 -45 -11 -7 -21 -16 -21
-21 0 -14 49 -8 54 7 9 24 37 15 32 -9 -16 -79 -16 -87 4 -93 24 -8 40 1 40
21 0 8 5 12 11 9 6 -4 9 -20 7 -36 -3 -33 14 -49 43 -42 25 7 69 -5 69 -18 0
-7 -14 -9 -37 -6 -21 4 -66 10 -100 15 -33 5 -76 17 -94 26 -17 9 -36 16 -41
16 -17 0 -99 75 -137 125 -59 79 -118 179 -129 216 -5 19 -26 77 -47 129 -34
88 -36 100 -31 165 4 38 9 77 12 87 7 23 39 42 114 66 144 47 213 52 218 16z
m52 22 c0 -3 -4 -8 -10 -11 -5 -3 -10 -1 -10 4 0 6 5 11 10 11 6 0 10 -2 10
-4z m2106 -193 c18 -24 18 -54 0 -47 -8 3 -16 19 -18 35 -5 33 -1 36 18 12z
m-2052 -220 c-31 -25 -68 -31 -62 -10 6 16 69 48 81 40 6 -3 -3 -17 -19 -30z
m106 -103 c0 -5 -4 -10 -10 -10 -5 0 -10 5 -10 10 0 6 5 10 10 10 6 0 10 -4
10 -10z m330 -350 c0 -5 -2 -10 -4 -10 -3 0 -8 5 -11 10 -3 6 -1 10 4 10 6 0
11 -4 11 -10z m28 -49 c3 -16 -1 -22 -10 -19 -7 3 -15 15 -16 27 -3 16 1 22
10 19 7 -3 15 -15 16 -27z m-433 -51 c-3 -5 -10 -10 -16 -10 -5 0 -9 5 -9 10
0 6 7 10 16 10 8 0 12 -4 9 -10z m82 -6 c-3 -3 -12 -4 -19 -1 -8 3 -5 6 6 6
11 1 17 -2 13 -5z m-110 -36 c-3 -8 -6 -5 -6 6 -1 11 2 17 5 13 3 -3 4 -12 1
-19z m-27 -33 c0 -8 -4 -15 -10 -15 -5 0 -10 7 -10 15 0 8 5 15 10 15 6 0 10
-7 10 -15z m304 -21 c30 -12 16 -24 -26 -24 -40 1 -42 2 -24 15 22 17 27 18
50 9z m-139 -44 c-3 -5 -17 -10 -31 -10 -14 0 -22 4 -19 10 3 6 17 10 31 10
14 0 22 -4 19 -10z m200 -71 c0 -23 31 -57 42 -45 9 9 43 -14 43 -30 0 -8 11
-19 24 -25 l24 -11 -26 -24 c-38 -33 -41 -37 -56 -58 -11 -17 -17 -18 -46 -8
-48 17 -140 16 -140 -2 0 -16 21 -26 53 -26 40 -1 139 -39 268 -105 27 -14 24
-24 -12 -37 -62 -22 -203 -99 -232 -128 -17 -17 -36 -30 -42 -30 -11 0 -60
-43 -66 -57 -2 -5 -23 -24 -46 -42 -24 -19 -45 -43 -49 -55 -4 -12 -22 -42
-40 -69 -42 -59 -43 -82 -4 -102 27 -14 30 -14 30 0 0 8 -5 15 -11 15 -7 0 -5
10 5 25 9 13 16 32 16 41 0 9 14 33 30 54 17 21 30 44 30 51 0 8 16 28 36 44
20 17 46 40 58 53 13 12 30 22 38 22 9 0 26 8 39 19 52 40 250 121 298 121 30
0 171 -153 171 -186 0 -8 9 -33 20 -54 17 -34 19 -51 13 -112 -4 -47 -13 -82
-25 -99 -11 -15 -21 -48 -23 -78 -4 -54 -28 -106 -45 -96 -5 3 -12 20 -15 38
-11 49 -45 66 -45 22 0 -14 5 -25 10 -25 6 0 10 -9 10 -20 0 -21 -8 -24 -34
-14 -12 5 -13 10 -5 25 7 13 6 31 -1 57 -5 20 -11 51 -12 67 -2 19 -9 30 -18
30 -12 0 -15 -14 -14 -71 1 -39 5 -77 9 -85 13 -20 17 -139 5 -139 -5 0 -13
12 -16 28 -4 15 -11 32 -15 38 -5 6 -14 39 -21 75 -11 54 -16 64 -35 67 -17 3
-23 -2 -23 -16 0 -11 6 -22 13 -25 10 -3 10 -9 0 -26 -14 -23 -17 -61 -5 -61
8 0 32 -78 32 -105 0 -27 -17 -16 -35 22 -10 20 -19 55 -20 77 -1 22 -7 42
-14 44 -6 2 -11 14 -11 27 0 13 -9 30 -19 37 -10 8 -21 23 -23 36 -3 21 -4 21
-32 7 -25 -13 -27 -13 -22 0 3 8 1 15 -4 15 -5 0 -10 -10 -10 -22 0 -13 0 -30
0 -38 -1 -8 2 -34 6 -57 3 -23 4 -50 0 -59 -9 -24 -34 -1 -59 55 -24 55 -39
38 -31 -34 l7 -50 -37 40 c-20 23 -34 47 -32 57 5 20 -18 43 -34 33 -16 -10
-12 -47 10 -83 24 -38 24 -42 7 -42 -19 0 -87 85 -87 109 0 11 -13 29 -30 41
-19 13 -30 30 -30 45 0 31 -43 59 -69 46 -24 -13 -40 4 -48 53 -6 39 -33 50
-33 14 0 -19 -2 -20 -13 -8 -7 8 -21 34 -30 58 -41 103 -51 122 -61 119 -6 -2
-10 -19 -8 -38 3 -33 3 -33 -15 -16 -16 15 -18 35 -17 150 0 109 4 143 22 194
63 179 96 216 257 293 101 48 215 77 250 64 8 -3 22 -1 32 5 25 15 38 8 38
-20z m194 -163 c7 -8 10 -20 6 -26 -3 -5 -1 -10 4 -10 6 0 11 4 11 9 0 13 70
-16 93 -38 24 -24 14 -91 -13 -91 -10 0 -20 6 -23 14 -7 17 -63 46 -89 46 -10
0 -26 4 -36 9 -9 5 -25 12 -35 15 -22 7 -15 42 14 68 10 9 19 21 19 27 0 14
30 0 49 -23z m983 -149 l33 -13 -46 -12 c-55 -14 -65 -25 -72 -77 -5 -42 23
-105 46 -105 7 0 25 -14 41 -30 l29 -30 -49 0 c-86 0 -155 -25 -196 -69 -47
-50 -49 -79 -5 -106 56 -34 95 -41 154 -29 26 5 34 3 40 -11 4 -11 0 -22 -10
-30 -9 -7 -20 -27 -24 -46 -3 -19 -13 -40 -22 -47 -14 -11 -14 -11 2 -6 21 8
23 -12 1 -20 -10 -4 -13 -13 -9 -25 6 -21 -44 -81 -69 -81 -19 0 -20 5 -6 30
7 13 7 21 0 25 -11 7 -14 113 -4 139 8 22 24 20 24 -3 0 -23 28 -48 39 -35 5
5 12 24 16 42 8 38 -15 53 -48 33 -16 -10 -21 -10 -27 0 -5 8 -19 10 -40 5
-20 -4 -38 -1 -47 6 -11 9 -16 9 -24 -3 -11 -18 -11 -21 1 -39 8 -12 11 -12
28 3 45 41 43 7 -3 -40 -19 -20 -35 -44 -35 -53 0 -10 -6 -23 -14 -29 -24 -20
-36 18 -36 108 0 78 -9 100 -26 64 -4 -10 -8 -26 -9 -37 -2 -10 -9 -23 -18
-27 -12 -7 -14 -16 -8 -37 5 -15 6 -41 4 -58 -3 -18 0 -35 6 -38 6 -4 11 -28
10 -54 -1 -46 -1 -46 -9 -13 -4 18 -13 37 -20 41 -6 4 -10 16 -8 27 4 25 -21
73 -38 73 -8 0 -14 -17 -16 -47 -3 -53 -28 -67 -38 -23 -4 16 -13 25 -25 25
-16 0 -20 -6 -17 -32 1 -18 -1 -33 -4 -33 -13 0 -33 35 -34 58 0 27 -21 37
-48 23 -17 -9 -20 -5 -30 37 -6 28 -7 51 -1 58 5 6 5 50 0 108 -7 75 -15 107
-35 141 -14 24 -26 50 -26 58 0 8 -22 44 -50 81 -27 37 -50 71 -50 77 0 13 33
24 120 38 41 6 131 23 200 36 112 22 143 25 297 20 111 -3 184 -9 205 -18z
m112 -97 c119 -17 130 -26 73 -60 -19 -11 -39 -31 -45 -45 -6 -14 -17 -25 -24
-25 -20 0 -128 103 -128 122 0 18 18 29 39 22 8 -2 46 -9 85 -14z m234 -103
c2 -28 -1 -37 -12 -37 -8 0 -18 5 -21 11 -4 6 -13 8 -21 5 -18 -7 -17 -6 2 33
22 44 48 38 52 -12z m139 -107 c8 -19 19 -42 24 -50 24 -39 45 -96 42 -110 -2
-8 -16 -20 -30 -27 -22 -11 -29 -10 -50 7 -19 15 -30 17 -43 10 -10 -6 -21
-10 -24 -10 -11 0 -6 51 8 103 8 29 18 84 21 122 l7 70 15 -40 c8 -22 21 -56
30 -75z m-147 -2 c0 -16 -3 -19 -11 -11 -6 6 -8 16 -5 22 11 17 16 13 16 -11z
m-286 -37 c3 -4 -1 -17 -9 -28 -11 -16 -30 -21 -93 -27 -44 -3 -87 -3 -96 0
-26 10 -18 34 16 49 36 14 174 20 182 6z m256 -120 c0 -24 -18 -37 -32 -23 -7
7 -6 15 3 26 19 21 29 20 29 -3z m-2200 -68 c13 -16 5 -17 -21 -3 -10 6 -19
17 -19 24 0 8 -7 19 -15 26 -8 7 -15 18 -15 24 0 9 14 -4 70 -71z m194 1 c15
-37 24 -69 22 -72 -3 -3 -1 -11 5 -19 6 -7 7 -13 2 -13 -10 0 -73 136 -73 158
0 31 20 6 44 -54z m1766 54 c0 -7 -10 -29 -22 -48 -18 -28 -23 -31 -26 -17 -5
26 17 77 34 77 8 0 14 -6 14 -12z m317 -73 c-17 -35 -28 -31 -16 5 6 16 15 28
19 25 4 -3 3 -16 -3 -30z m-2007 5 c0 -5 -2 -10 -4 -10 -3 0 -8 5 -11 10 -3 6
-1 10 4 10 6 0 11 -4 11 -10z m85 -76 c9 -20 14 -38 11 -41 -3 -3 -9 3 -13 13
-4 10 -13 25 -20 32 -15 15 -17 32 -4 32 5 0 16 -16 26 -36z m1542 -6 c-3 -8
-6 -5 -6 6 -1 11 2 17 5 13 3 -3 4 -12 1 -19z m-693 -100 c4 -23 3 -38 -3 -38
-12 0 -25 56 -16 70 9 15 11 12 19 -32z m666 1 c-7 -11 -14 -18 -17 -15 -8 8
5 36 17 36 7 0 7 -6 0 -21z m-430 -53 c0 -24 -2 -27 -15 -16 -15 13 -20 51 -8
63 10 11 23 -15 23 -47z m-310 4 c0 -11 -4 -20 -10 -20 -5 0 -10 2 -10 4 0 2
-3 11 -6 20 -4 11 -1 16 10 16 9 0 16 -8 16 -20z m160 10 c0 -5 -4 -10 -10
-10 -5 0 -10 5 -10 10 0 6 5 10 10 10 6 0 10 -4 10 -10z m-930 -10 c0 -5 -4
-10 -10 -10 -5 0 -10 5 -10 10 0 6 5 10 10 10 6 0 10 -4 10 -10z m860 -29 c0
-5 3 -24 6 -42 5 -32 5 -33 -10 -15 -18 22 -22 66 -6 66 6 0 10 -4 10 -9z
m-565 -11 c3 -5 1 -10 -4 -10 -6 0 -11 5 -11 10 0 6 2 10 4 10 3 0 8 -4 11
-10z m947 -22 c-15 -15 -26 -4 -18 18 5 13 9 15 18 6 9 -9 9 -15 0 -24z m-157
2 c3 -5 1 -10 -4 -10 -6 0 -11 5 -11 10 0 6 2 10 4 10 3 0 8 -4 11 -10z
m-1037 -38 c-8 -2 -28 3 -44 9 l-29 12 25 7 c17 5 31 2 44 -9 14 -13 15 -17 4
-19z m742 17 c0 -5 -4 -9 -10 -9 -5 0 -10 7 -10 16 0 8 5 12 10 9 6 -3 10 -10
10 -16z m-365 -29 c3 -5 1 -10 -4 -10 -6 0 -11 5 -11 10 0 6 2 10 4 10 3 0 8
-4 11 -10z m-275 -10 c8 -5 12 -12 8 -15 -8 -8 -58 5 -58 16 0 12 31 11 50 -1z
m450 -51 c0 -5 -4 -9 -10 -9 -5 0 -10 7 -10 16 0 8 5 12 10 9 6 -3 10 -10 10
-16z"/>
<path d="M6100 2931 c0 -15 -41 -24 -53 -12 -13 13 -27 14 -27 2 0 -8 54 -41
66 -41 1 0 9 14 18 30 8 17 10 30 5 30 -5 0 -9 -4 -9 -9z"/>
<path d="M4605 3300 c-3 -5 3 -10 14 -10 12 0 21 5 21 10 0 6 -6 10 -14 10 -8
0 -18 -4 -21 -10z"/>
<path d="M4204 2886 c-8 -22 3 -33 18 -18 9 9 9 15 0 24 -9 9 -13 7 -18 -6z"/>
<path d="M4165 2820 c-3 -5 -1 -10 4 -10 6 0 11 5 11 10 0 6 -2 10 -4 10 -3 0
-8 -4 -11 -10z"/>
<path d="M4197 2713 c-4 -3 -7 -11 -7 -17 0 -6 5 -5 12 2 6 6 9 14 7 17 -3 3
-9 2 -12 -2z"/>
<path d="M5654 2685 c-12 -19 -15 -36 -9 -72 10 -67 20 -83 56 -83 56 0 69 15
69 76 0 47 -4 59 -26 79 -35 32 -69 32 -90 0z"/>
<path d="M4150 2645 c-6 -16 -18 -43 -25 -60 -20 -45 -29 -148 -13 -143 7 3
16 24 19 49 4 24 14 71 23 103 18 65 16 99 -4 51z"/>
<path d="M5850 2635 c12 -15 30 -12 30 6 0 5 -10 9 -21 9 -18 0 -19 -2 -9 -15z"/>
<path d="M4222 2498 c-6 -13 -14 -34 -17 -48 -7 -25 -7 -25 9 -3 21 28 38 73
27 73 -4 0 -13 -10 -19 -22z"/>
<path d="M4336 2471 c-4 -7 -5 -15 -2 -18 9 -9 19 4 14 18 -4 11 -6 11 -12 0z"/>
<path d="M4178 2414 c-5 -4 -8 -23 -8 -41 0 -19 -5 -43 -10 -54 -7 -12 -7 -19
-1 -19 6 0 15 17 22 38 11 40 9 89 -3 76z"/>
<path d="M4246 2354 c-17 -17 -20 -27 -10 -37 10 -10 44 12 44 28 0 22 -17 27
-34 9z"/>
<path d="M5535 2150 c-8 -13 -1 -24 14 -19 6 3 7 10 2 18 -6 10 -10 10 -16 1z"/>
<path d="M5452 2108 c6 -18 28 -21 28 -4 0 9 -7 16 -16 16 -9 0 -14 -5 -12
-12z"/>
<path d="M4560 1440 c0 -5 5 -10 11 -10 5 0 7 5 4 10 -3 6 -8 10 -11 10 -2 0
-4 -4 -4 -10z"/>
<path d="M4465 609 c-8 -26 6 -42 28 -33 21 8 22 40 1 48 -22 8 -22 8 -29 -15z"/>
<path d="M4098 565 c3 -29 8 -44 16 -42 6 3 9 11 7 18 -2 8 -6 26 -9 42 -7 44
-17 31 -14 -18z"/>
<path d="M4177 593 c-3 -3 -3 -11 0 -19 6 -15 29 -19 37 -6 6 9 -29 33 -37 25z"/>
<path d="M5140 730 c0 -5 5 -10 10 -10 6 0 10 5 10 10 0 6 -4 10 -10 10 -5 0
-10 -4 -10 -10z"/>
<path d="M5020 671 c0 -6 5 -13 10 -16 6 -3 10 1 10 9 0 9 -4 16 -10 16 -5 0
-10 -4 -10 -9z"/>
<path d="M4861 611 c-18 -11 -10 -45 12 -49 11 -2 17 3 17 15 0 27 -14 43 -29
34z"/>
<path d="M5353 543 c-18 -6 -16 -33 1 -33 19 0 31 19 20 30 -5 4 -15 5 -21 3z"/>
<path d="M5920 730 c0 -5 5 -10 10 -10 6 0 10 5 10 10 0 6 -4 10 -10 10 -5 0
-10 -4 -10 -10z"/>
<path d="M5951 714 c0 -11 3 -14 6 -6 3 7 2 16 -1 19 -3 4 -6 -2 -5 -13z"/>
<path d="M2870 4019 c0 -5 5 -7 10 -4 6 3 10 8 10 11 0 2 -4 4 -10 4 -5 0 -10
-5 -10 -11z"/>
<path d="M755 4000 c-4 -12 -1 -28 6 -36 11 -13 14 -12 25 8 9 16 9 27 2 35
-15 19 -26 16 -33 -7z m21 -27 c-11 -11 -17 4 -9 23 7 18 8 18 11 1 2 -10 1
-21 -2 -24z"/>
<path d="M1087 4006 c-6 -15 0 -27 23 -48 40 -36 52 -36 18 0 -14 15 -28 36
-30 47 -3 19 -4 19 -11 1z"/>
<path d="M1570 3999 c0 -5 5 -7 10 -4 6 3 10 8 10 11 0 2 -4 4 -10 4 -5 0 -10
-5 -10 -11z"/>
<path d="M2368 3940 c-15 -11 -33 -20 -42 -20 -9 0 -16 -4 -16 -10 0 -5 -19
-18 -42 -28 -32 -14 -47 -16 -57 -8 -11 9 -13 6 -6 -14 16 -53 41 -65 51 -24
5 20 11 24 28 20 29 -7 138 60 134 82 -5 24 -22 25 -50 2z"/>
<path d="M3005 3950 c-3 -6 1 -7 9 -4 18 7 21 14 7 14 -6 0 -13 -4 -16 -10z"/>
<path d="M2135 3940 c4 -6 11 -8 16 -5 14 9 11 15 -7 15 -8 0 -12 -5 -9 -10z"/>
<path d="M2666 3934 c-4 -10 -1 -14 6 -12 15 5 23 28 10 28 -5 0 -13 -7 -16
-16z"/>
<path d="M2825 3930 c-3 -5 -1 -10 4 -10 6 0 11 5 11 10 0 6 -2 10 -4 10 -3 0
-8 -4 -11 -10z"/>
<path d="M1214 3900 c0 -11 6 -20 13 -20 15 0 15 2 7 24 -9 22 -20 20 -20 -4z"/>
<path d="M1380 3910 c-9 -6 -10 -10 -3 -10 6 0 15 5 18 10 8 12 4 12 -15 0z"/>
<path d="M3061 3895 c-1 -29 -30 -65 -52 -65 -6 0 -19 10 -30 23 -16 19 -18
20 -19 4 0 -11 -5 -15 -11 -11 -8 5 -8 1 0 -14 14 -27 30 -31 61 -15 43 21 62
48 57 80 l-4 28 -2 -30z"/>
<path d="M1266 3893 c-6 -14 -5 -15 5 -6 7 7 10 15 7 18 -3 3 -9 -2 -12 -12z"/>
<path d="M1295 3900 c3 -5 18 -10 32 -10 32 0 28 5 -10 14 -19 4 -26 3 -22 -4z"/>
<path d="M2646 3903 c-11 -11 -6 -23 8 -23 8 0 17 4 20 9 7 10 -19 23 -28 14z"/>
<path d="M2080 3890 c0 -5 5 -10 10 -10 6 0 10 5 10 10 0 6 -4 10 -10 10 -5 0
-10 -4 -10 -10z"/>
<path d="M2120 3880 c0 -5 5 -10 10 -10 6 0 10 5 10 10 0 6 -4 10 -10 10 -5 0
-10 -4 -10 -10z"/>
<path d="M660 3865 c0 -9 5 -15 11 -13 6 2 11 8 11 13 0 5 -5 11 -11 13 -6 2
-11 -4 -11 -13z"/>
<path d="M2082 3851 c2 -7 7 -12 11 -12 12 1 9 15 -3 20 -7 2 -11 -2 -8 -8z"/>
<path d="M2660 3810 c0 -5 5 -10 10 -10 6 0 10 5 10 10 0 6 -4 10 -10 10 -5 0
-10 -4 -10 -10z"/>
<path d="M2915 3810 c3 -5 8 -10 11 -10 2 0 4 5 4 10 0 6 -5 10 -11 10 -5 0
-7 -4 -4 -10z"/>
<path d="M2520 3740 c0 -5 5 -10 10 -10 6 0 10 5 10 10 0 6 -4 10 -10 10 -5 0
-10 -4 -10 -10z"/>
<path d="M2766 3731 c-4 -7 -5 -15 -2 -18 9 -9 19 4 14 18 -4 11 -6 11 -12 0z"/>
<path d="M3036 3702 c-3 -6 -1 -14 5 -17 15 -10 25 3 12 16 -7 7 -13 7 -17 1z"/>
<path d="M1950 3666 c0 -9 5 -16 10 -16 6 0 10 4 10 9 0 6 -4 13 -10 16 -5 3
-10 -1 -10 -9z"/>
<path d="M1247 3663 c-13 -12 -7 -33 8 -33 8 0 15 9 15 20 0 20 -11 26 -23 13z"/>
<path d="M2711 3554 c0 -11 3 -14 6 -6 3 7 2 16 -1 19 -3 4 -6 -2 -5 -13z"/>
<path d="M3885 2910 c-3 -5 -1 -10 4 -10 6 0 11 5 11 10 0 6 -2 10 -4 10 -3 0
-8 -4 -11 -10z"/>
<path d="M3859 2813 c-11 -30 -8 -59 6 -56 10 3 19 83 10 83 -3 0 -10 -12 -16
-27z"/>
<path d="M6190 2580 c0 -5 7 -10 15 -10 8 0 15 5 15 10 0 6 -7 10 -15 10 -8 0
-15 -4 -15 -10z"/>
<path d="M6350 1671 c0 -6 4 -13 10 -16 6 -3 7 1 4 9 -7 18 -14 21 -14 7z"/>
<path d="M3787 1594 c-13 -13 -7 -24 14 -24 11 0 19 5 17 12 -5 14 -22 21 -31
12z"/>
<path d="M6288 1563 c-22 -6 -23 -19 -2 -27 26 -10 34 -7 34 14 0 20 -2 21
-32 13z"/>
<path d="M3650 1528 c0 -9 5 -20 10 -23 13 -8 13 5 0 25 -8 13 -10 13 -10 -2z"/>
<path d="M3820 1515 c0 -9 5 -15 11 -13 6 2 11 8 11 13 0 5 -5 11 -11 13 -6 2
-11 -4 -11 -13z"/>
<path d="M6340 1502 c-14 -11 -40 -23 -58 -26 -54 -12 -59 -77 -7 -106 29 -16
30 -16 47 6 10 12 18 26 18 30 0 4 7 16 17 26 11 13 12 18 3 18 -10 0 -10 3 0
15 10 12 10 15 -1 15 -12 0 -12 2 0 9 7 5 12 14 9 21 -2 8 -11 5 -28 -8z"/>
<path d="M6477 1092 c-14 -16 -15 -21 -4 -36 11 -15 17 -17 35 -7 23 12 26 20
16 45 -8 21 -27 20 -47 -2z"/>
</g>
</svg>
