<?xml version="1.0" standalone="no"?>
<!DOCTYPE svg PUBLIC "-//W3C//DTD SVG 20010904//EN"
 "http://www.w3.org/TR/2001/REC-SVG-20010904/DTD/svg10.dtd">
<svg version="1.0" xmlns="http://www.w3.org/2000/svg"
 width="616.000000pt" height="439.000000pt" viewBox="0 0 616.000000 439.000000"
 preserveAspectRatio="xMidYMid meet">

<g transform="translate(0.000000,439.000000) scale(0.100000,-0.100000)"
fill="#000000" stroke="none">
<path d="M2377 4317 c-23 -49 -39 -160 -27 -191 12 -33 27 -32 70 5 27 23 36
26 38 14 5 -21 22 -19 49 7 21 20 23 20 23 3 0 -11 -18 -45 -41 -77 -29 -42
-36 -58 -25 -58 9 0 29 19 46 43 17 23 42 55 58 71 19 21 22 27 9 23 -16 -6
-17 -2 -11 28 8 43 -1 44 -44 3 l-35 -33 7 28 c6 26 -6 38 -19 17 -3 -5 -15
-15 -27 -21 -13 -7 -18 -7 -14 -1 11 18 -12 23 -29 6 -9 -9 -13 -24 -10 -35 4
-11 2 -19 -5 -19 -19 0 -24 32 -10 64 31 76 48 130 43 143 -9 23 -30 14 -46
-20z"/>
<path d="M2718 4343 c-24 -6 -23 -23 1 -23 18 0 19 -2 5 -27 -7 -16 -14 -36
-14 -45 0 -10 -4 -18 -9 -18 -5 0 -6 -20 -3 -45 4 -36 1 -49 -13 -59 -16 -11
-16 -14 -2 -19 18 -7 112 17 133 34 12 10 18 8 35 -9 24 -26 22 -26 59 -7 27
14 30 14 40 -5 14 -25 30 -25 74 1 40 23 44 20 20 -17 -23 -35 -11 -40 32 -14
l37 23 17 -23 c11 -14 24 -21 33 -17 10 4 17 -2 21 -19 5 -18 0 -30 -18 -47
-36 -32 -38 -61 -4 -65 35 -4 79 37 72 65 -3 11 2 25 10 32 9 8 16 18 16 23 0
6 -6 5 -15 -2 -8 -6 -19 -9 -25 -5 -21 13 -9 43 25 64 19 11 35 27 35 36 0 14
-3 14 -27 0 -16 -8 -43 -27 -60 -41 -32 -26 -33 -26 -33 -5 0 29 -25 37 -56
16 l-25 -16 16 31 c23 45 -2 50 -56 11 -51 -37 -59 -38 -59 -7 0 36 -16 40
-50 16 -18 -13 -38 -19 -47 -16 -14 6 -12 11 10 34 29 30 34 47 16 57 -13 9
-49 -23 -60 -54 -9 -21 -11 -22 -27 -9 -9 9 -32 23 -50 33 l-34 16 54 32 c63
38 75 71 33 87 -27 10 -75 12 -107 3z m90 -45 c2 -11 -8 -23 -28 -33 -18 -9
-33 -15 -34 -13 -2 2 1 18 6 36 7 27 13 33 31 30 12 -2 23 -11 25 -20z m-18
-137 c0 -4 -16 -12 -35 -18 -38 -12 -40 -9 -29 34 6 21 8 22 35 7 16 -8 29
-18 29 -23z m420 -164 c0 -19 -21 -37 -44 -37 -18 0 -18 1 4 25 26 28 40 32
40 12z"/>
<path d="M2190 4303 c-7 -16 -15 -55 -17 -89 -3 -33 -12 -69 -20 -80 -14 -19
-14 -19 -29 1 -14 19 -15 19 -40 -10 l-25 -30 24 40 c13 22 27 46 31 53 4 7 2
12 -7 12 -8 0 -31 -23 -51 -52 -20 -29 -36 -45 -36 -35 0 9 -7 17 -15 17 -15
0 -20 -16 -17 -52 1 -10 -3 -18 -8 -18 -19 0 -23 30 -11 88 19 92 18 132 -4
132 -19 0 -35 -60 -36 -145 -1 -38 -4 -61 -6 -50 -15 58 -62 51 -97 -15 -25
-47 -50 -69 -62 -57 -5 4 -7 45 -6 90 2 85 -8 121 -28 101 -17 -17 -12 -209 6
-209 5 0 15 -4 22 -8 20 -13 48 1 62 31 11 22 14 24 17 10 5 -22 36 -23 57 -3
8 8 19 15 24 15 6 0 12 6 15 13 3 8 11 4 24 -12 l19 -24 21 26 c14 18 26 24
40 21 14 -4 27 3 43 23 14 18 24 23 27 16 7 -19 27 -16 48 7 16 18 20 19 27 5
13 -21 42 -19 64 6 l19 21 -32 -6 c-17 -4 -34 -3 -37 2 -3 5 3 34 14 65 23 66
26 127 7 127 -8 0 -20 -12 -27 -27z m15 -73 c-9 -41 -17 -33 -9 9 4 17 9 30
11 27 3 -2 2 -19 -2 -36z m-248 -72 c-3 -8 -6 -5 -6 6 -1 11 2 17 5 13 3 -3 4
-12 1 -19z m-210 -70 c-2 -13 -4 -3 -4 22 0 25 2 35 4 23 2 -13 2 -33 0 -45z
m153 -11 c0 -7 -6 -21 -13 -32 -17 -22 -32 -5 -22 25 7 22 35 28 35 7z"/>
<path d="M2980 4255 c-7 -9 -10 -18 -7 -21 10 -11 37 5 37 21 0 19 -14 19 -30
0z"/>
<path d="M3431 4153 c-17 -21 -31 -42 -31 -47 0 -5 -14 -31 -30 -58 -24 -39
-28 -53 -19 -64 14 -17 62 -18 90 -3 18 9 19 7 13 -15 -6 -25 -4 -26 56 -40
14 -3 30 -15 35 -28 7 -17 20 -24 47 -26 26 -2 35 -7 32 -17 -7 -16 28 -29 55
-20 15 4 20 0 23 -17 2 -16 11 -24 29 -26 20 -2 26 -8 22 -21 -5 -22 32 -52
53 -44 10 4 8 9 -8 23 -19 15 -20 20 -10 33 7 9 31 18 52 22 42 7 101 41 108
63 9 27 -78 6 -138 -35 -19 -12 -45 -23 -58 -23 -19 0 -21 4 -16 26 6 25 5 25
-32 20 -30 -4 -33 -4 -14 3 14 5 40 9 58 10 17 1 32 6 32 12 0 9 -27 10 -93 6
-103 -6 -135 3 -103 28 11 8 32 15 47 15 29 0 48 15 28 22 -7 2 -34 1 -61 -2
-53 -7 -53 -7 -36 20 11 16 9 23 -9 39 -21 20 -23 20 -75 3 -52 -17 -98 -19
-98 -3 0 5 25 45 55 89 30 45 55 83 55 86 0 18 -33 1 -59 -31z m109 -177 c0
-14 -21 -26 -46 -26 -22 0 -16 20 9 30 31 12 37 12 37 -4z m340 -141 c-14 -8
-29 -14 -35 -14 -5 0 1 6 15 14 14 8 30 14 35 14 6 0 -1 -6 -15 -14z"/>
<path d="M1581 4128 c-56 -59 -29 -216 38 -226 15 -2 26 5 39 27 9 17 20 31
24 31 3 0 12 -16 18 -36 18 -53 33 -28 20 32 -18 84 -42 97 -54 30 -4 -19 -13
-40 -21 -46 -35 -29 -84 66 -70 137 8 44 30 52 60 23 23 -21 25 -22 31 -5 5
12 0 24 -15 37 -30 24 -46 23 -70 -4z"/>
<path d="M1426 3895 c-12 -9 -20 -30 -22 -62 -2 -26 -1 -42 2 -36 4 10 9 9 21
-3 18 -18 33 -15 47 11 6 11 17 25 24 33 10 11 7 19 -15 43 -32 33 -32 33 -57
14z m39 -53 c0 -31 -19 -28 -23 4 -3 18 0 25 10 22 7 -3 13 -14 13 -26z"/>
<path d="M1226 3878 c-39 -55 1 -169 72 -207 32 -17 60 1 68 45 l6 35 29 -33
c22 -26 28 -29 29 -15 0 25 -59 109 -73 104 -7 -2 -12 -24 -12 -53 0 -38 -4
-49 -18 -52 -26 -5 -84 58 -92 101 -12 64 0 76 58 52 24 -10 23 21 -2 35 -30
16 -48 12 -65 -12z"/>
<path d="M2342 3869 c-61 -10 -202 -56 -217 -70 -5 -5 5 -9 28 -9 20 0 37 -4
37 -8 0 -11 -99 -33 -165 -38 -65 -4 -224 -82 -257 -125 -13 -17 -45 -56 -73
-87 -58 -65 -52 -62 127 74 73 56 143 106 155 113 31 16 51 14 27 -3 -24 -18
-13 -31 14 -17 12 6 29 11 40 11 11 0 46 12 78 27 32 15 88 35 124 44 68 18
65 23 -9 19 -102 -5 15 44 132 56 37 3 67 10 67 15 0 11 -36 10 -108 -2z"/>
<path d="M2792 3874 c4 -3 23 -10 43 -14 21 -5 34 -5 29 -1 -10 10 -80 24 -72
15z"/>
<path d="M2490 3860 c0 -5 5 -10 11 -10 5 0 7 5 4 10 -3 6 -8 10 -11 10 -2 0
-4 -4 -4 -10z"/>
<path d="M2976 3832 c-3 -6 12 -25 35 -43 36 -29 40 -35 35 -64 -5 -22 -2 -36
9 -45 25 -21 18 -40 -15 -40 -18 0 -30 -5 -30 -13 0 -8 -8 -21 -19 -31 -16
-15 -19 -15 -31 -1 -17 21 -67 19 -78 -2 -5 -10 -12 -35 -15 -55 -5 -31 -2
-39 20 -53 13 -9 22 -19 19 -22 -3 -3 -12 0 -20 6 -16 14 -36 7 -36 -12 0 -7
12 -20 28 -29 15 -10 21 -18 15 -18 -7 0 -13 -9 -13 -20 0 -11 -4 -20 -10 -20
-5 0 -10 6 -10 13 0 17 -48 87 -60 87 -16 0 -12 -36 5 -50 21 -17 19 -33 -4
-25 -28 8 -172 -41 -219 -75 -44 -32 -82 -39 -82 -16 0 8 -3 21 -6 29 -4 13 2
14 35 10 56 -8 52 8 -11 48 -68 42 -116 43 -184 1 -27 -17 -75 -43 -107 -58
-57 -27 -94 -64 -83 -83 3 -5 16 -7 28 -3 19 5 21 2 15 -24 -3 -16 -9 -37 -12
-47 -7 -15 -4 -16 21 -6 39 14 62 37 85 82 19 36 91 91 111 85 5 -2 -6 -23
-26 -47 -20 -23 -33 -47 -30 -52 3 -5 20 -9 39 -9 19 0 37 -4 40 -10 3 -6 -5
-10 -19 -10 -35 0 -56 -10 -56 -26 0 -8 -10 -14 -23 -14 -16 0 -28 -9 -36 -26
-11 -25 -14 -26 -66 -20 -30 3 -65 11 -79 17 -20 10 -40 7 -109 -15 -47 -14
-94 -26 -106 -26 -14 0 -22 -8 -26 -27 -14 -70 -56 -103 -85 -68 -15 18 -60
20 -60 3 0 -7 -14 -31 -30 -52 -36 -48 -37 -56 -7 -84 32 -30 54 -28 111 13
27 19 55 35 63 35 7 0 13 5 13 10 0 14 94 12 108 -2 7 -7 12 -19 12 -27 0 -25
51 -91 71 -91 16 0 15 4 -7 45 -25 44 -28 75 -9 82 16 5 65 -104 76 -165 4
-30 11 -57 13 -60 12 -11 36 23 34 47 -3 23 1 26 34 29 21 2 46 -1 55 -7 17
-10 17 -10 1 -11 -14 0 -18 -8 -18 -34 0 -48 19 -63 90 -71 68 -8 72 -15 44
-85 -11 -28 -24 -42 -42 -47 -35 -9 -119 10 -193 43 l-61 28 -18 -24 c-17 -23
-19 -23 -44 -7 -14 10 -33 28 -41 41 -8 12 -27 28 -41 35 -25 11 -26 14 -20
66 l6 54 -37 10 c-21 6 -71 15 -112 21 -40 6 -77 13 -82 16 -20 12 -82 -10
-112 -41 -18 -18 -49 -40 -69 -50 -46 -21 -95 -87 -131 -178 -32 -80 -33 -109
-7 -211 34 -132 51 -161 113 -190 29 -14 66 -26 81 -26 38 0 60 -14 122 -75
53 -52 54 -54 54 -112 0 -48 5 -68 30 -106 43 -68 73 -163 67 -213 -6 -53 9
-86 76 -176 59 -81 118 -138 169 -164 67 -35 196 -12 219 39 6 14 22 30 35 36
21 9 23 14 14 30 -15 30 -3 48 47 67 25 10 51 28 60 40 13 20 12 30 -7 98 -19
68 -19 78 -6 103 15 30 67 81 157 156 63 52 115 126 125 177 6 29 5 32 -10 27
-9 -4 -46 -12 -81 -19 -71 -13 -88 -6 -122 53 -9 15 -26 32 -37 37 -22 10 -76
105 -76 132 0 8 -7 29 -16 45 -29 55 -64 148 -64 169 1 43 106 -99 117 -158 3
-17 21 -48 38 -69 18 -21 40 -62 49 -92 10 -29 23 -56 30 -58 34 -13 142 29
236 93 58 40 120 109 120 136 0 7 -16 22 -35 34 -19 12 -35 28 -35 36 0 22
-16 17 -34 -11 -29 -44 -73 -27 -127 48 -48 66 -31 107 22 51 36 -39 76 -56
111 -49 21 5 33 3 39 -6 6 -11 36 -14 117 -14 113 0 116 -1 173 -52 23 -21 27
-22 39 -8 18 22 30 18 30 -9 0 -14 5 -37 11 -53 15 -40 113 -203 121 -203 17
0 36 50 42 110 5 50 18 88 56 165 27 56 63 113 78 128 l29 28 46 -50 c26 -28
47 -56 47 -62 0 -7 8 -5 20 6 23 21 21 22 46 -25 13 -26 19 -31 22 -17 4 21
35 22 66 1 29 -18 34 -12 42 58 6 53 5 55 -35 102 -44 50 -47 60 -31 101 12
31 30 24 30 -12 0 -46 15 -13 16 35 1 26 5 81 9 123 9 93 -8 153 -67 226 -21
27 -43 61 -49 76 -9 22 -14 25 -25 16 -11 -9 -17 -3 -31 25 -16 34 -16 37 0
53 16 16 19 16 48 -6 46 -34 45 -19 -1 34 -23 27 -52 71 -64 99 -13 28 -48 83
-79 121 -31 39 -57 73 -57 78 0 4 -9 7 -19 7 -10 0 -22 7 -25 15 -5 13 -10 14
-27 5 -26 -14 -56 4 -96 57 -15 21 -49 59 -75 85 -52 52 -49 59 13 27 23 -11
43 -18 45 -16 8 7 -168 95 -252 125 -44 16 -86 32 -95 36 -10 4 -20 3 -23 -2z"/>
<path d="M2360 3787 c0 -23 75 -48 93 -31 3 3 -2 14 -11 25 -19 22 -82 27 -82
6z"/>
<path d="M2956 3711 c-4 -5 -2 -12 3 -15 5 -4 12 -2 15 3 4 5 2 12 -3 15 -5 4
-12 2 -15 -3z"/>
<path d="M2790 3625 c7 -8 20 -15 29 -15 13 1 13 3 -3 15 -26 19 -42 19 -26 0z"/>
<path d="M2461 3577 c-6 -8 -8 -17 -5 -20 9 -8 44 11 44 23 0 15 -26 12 -39
-3z"/>
<path d="M2697 3512 c-21 -23 -34 -82 -18 -82 6 0 14 8 17 18 5 14 19 48 32
75 7 14 -15 7 -31 -11z"/>
<path d="M3560 3503 c0 -13 29 -38 35 -31 3 3 -4 13 -15 23 -11 10 -20 13 -20
8z"/>
<path d="M2047 3493 c-12 -12 -7 -31 10 -37 21 -8 35 6 27 27 -6 17 -25 22
-37 10z"/>
<path d="M3640 3416 c0 -5 21 -31 46 -59 52 -58 104 -143 104 -170 0 -10 16
-46 35 -79 80 -135 99 -256 66 -415 -25 -122 -26 -131 -4 -155 13 -15 16 -35
15 -91 -2 -77 7 -103 31 -94 11 4 17 23 19 64 3 59 20 80 26 32 3 -25 -25
-145 -47 -202 -26 -67 -1 -134 27 -72 40 88 52 457 19 595 -46 192 -116 358
-216 506 -55 82 -121 159 -121 140z"/>
<path d="M1990 3252 c-5 -22 -19 -47 -30 -57 -11 -10 -20 -29 -20 -42 0 -26 0
-26 34 -13 18 7 27 19 32 47 3 21 13 48 21 61 15 24 10 42 -12 42 -8 0 -19
-17 -25 -38z"/>
<path d="M1915 3225 c-27 -22 -28 -24 -9 -25 18 0 64 33 64 45 0 13 -28 2 -55
-20z"/>
<path d="M2131 3196 c-7 -8 -8 -17 -3 -20 6 -3 15 1 21 8 7 8 8 17 3 20 -6 3
-15 -1 -21 -8z"/>
<path d="M200 3020 c-92 -52 -130 -99 -130 -162 0 -38 17 -65 83 -132 51 -52
59 -81 30 -113 -10 -10 -14 -13 -9 -6 14 21 -14 15 -69 -15 -56 -30 -69 -57
-33 -71 28 -11 75 7 128 49 21 16 49 30 62 30 13 0 29 5 36 12 9 9 16 5 32
-15 16 -19 30 -27 53 -27 42 1 62 14 127 83 30 31 60 57 67 57 21 0 25 -42 8
-95 -8 -27 -15 -56 -15 -62 0 -17 30 -16 55 0 72 50 73 50 68 22 -11 -53 62
-38 123 26 l27 29 19 -30 c21 -36 54 -39 91 -10 32 25 26 49 -11 47 -24 -2
-27 2 -30 31 -5 50 -25 49 -87 -3 -79 -68 -68 -42 20 45 41 41 75 80 75 87 0
36 -71 -2 -155 -81 -120 -114 -143 -129 -125 -80 20 51 12 98 -20 129 -29 28
-32 29 -58 15 -14 -9 -29 -25 -32 -37 -3 -12 -24 -42 -48 -67 -32 -35 -50 -46
-73 -46 -45 0 -47 24 -5 70 39 43 52 77 41 109 -17 55 -102 -7 -126 -91 -7
-24 -20 -52 -31 -63 -18 -19 -18 -19 -18 3 0 31 -15 57 -65 117 -73 87 -80
116 -41 162 23 26 25 26 19 6 -8 -33 11 -29 69 13 40 30 49 41 46 63 -4 37
-32 37 -98 1z m181 -293 c-13 -12 -20 -15 -16 -7 14 26 28 41 33 35 3 -3 -5
-16 -17 -28z"/>
<path d="M4270 3027 c-63 -31 -101 -62 -127 -105 -40 -66 -32 -90 64 -195 29
-32 53 -62 53 -66 0 -18 -28 -62 -32 -50 -3 8 -21 3 -58 -16 -74 -37 -82 -52
-41 -74 21 -12 106 24 135 58 11 12 31 21 48 21 16 0 36 9 45 20 23 27 33 25
33 -6 0 -74 49 -84 106 -22 37 42 37 42 52 20 24 -36 65 -29 119 21 27 24 44
34 40 24 -4 -10 -10 -36 -13 -58 -9 -57 11 -51 79 26 66 73 82 81 73 33 -19
-101 -19 -108 -4 -108 8 0 34 23 57 50 23 28 48 50 55 50 7 0 27 -13 44 -30
18 -16 40 -30 49 -30 9 0 37 19 61 43 l45 42 -8 -35 c-4 -19 -9 -45 -12 -57
-10 -42 23 -25 82 42 80 92 84 89 59 -42 -9 -48 16 -43 61 12 50 60 69 65 109
26 36 -35 52 -38 83 -16 19 14 22 13 38 -11 15 -24 22 -26 62 -21 40 4 54 13
113 72 38 38 73 64 79 61 15 -10 14 -56 -4 -106 -16 -46 -13 -60 13 -60 20 1
112 66 112 80 0 19 -22 21 -41 4 -25 -22 -36 -11 -21 21 20 44 14 82 -17 117
-26 29 -32 31 -57 23 -18 -7 -30 -20 -35 -39 -12 -42 -87 -116 -119 -116 -49
0 -53 19 -15 66 43 52 55 82 44 112 -9 24 -36 29 -61 10 -26 -21 -68 -89 -68
-112 -1 -20 -31 -66 -44 -66 -3 0 -17 18 -31 40 -29 46 -46 49 -89 16 l-31
-23 0 55 c0 35 -5 57 -12 59 -7 3 -38 -19 -69 -49 l-56 -53 7 38 c6 30 4 38
-10 43 -13 5 -35 -10 -82 -59 -36 -37 -67 -67 -69 -67 -2 0 -16 18 -30 40 -31
47 -51 50 -93 15 l-30 -26 6 55 c8 81 -12 85 -83 15 l-54 -53 0 42 c0 61 -22
55 -96 -24 -34 -37 -67 -64 -72 -60 -5 3 -13 22 -16 41 -8 41 -38 48 -57 13
-21 -39 -63 -88 -76 -88 -18 0 -16 41 3 107 9 30 14 57 11 60 -13 13 -46 -13
-91 -72 -26 -36 -52 -65 -57 -65 -5 0 -9 15 -9 33 0 24 -13 46 -50 91 -90 104
-95 130 -38 182 18 16 25 19 15 7 -28 -33 -2 -39 43 -9 47 31 73 67 64 90 -8
21 -30 20 -84 -7z m1346 -299 c-18 -26 -22 -17 -5 14 6 11 13 17 16 15 3 -3
-2 -16 -11 -29z"/>
<path d="M1860 2870 c0 -5 5 -10 10 -10 6 0 10 5 10 10 0 6 -4 10 -10 10 -5 0
-10 -4 -10 -10z"/>
<path d="M2010 2760 c0 -5 5 -10 10 -10 6 0 10 5 10 10 0 6 -4 10 -10 10 -5 0
-10 -4 -10 -10z"/>
<path d="M1310 2558 c0 -19 2 -20 10 -8 13 19 13 30 0 30 -5 0 -10 -10 -10
-22z"/>
<path d="M476 2499 c-11 -56 -6 -291 9 -399 28 -206 51 -259 192 -447 117
-157 123 -158 104 -25 -22 158 -52 264 -157 547 -56 154 -105 292 -109 307 -4
15 -13 32 -20 38 -9 8 -14 3 -19 -21z"/>
<path d="M4567 2478 c-9 -24 -31 -88 -50 -143 -19 -55 -57 -158 -85 -230 -27
-71 -61 -171 -76 -220 -45 -155 -71 -345 -47 -345 18 0 173 207 206 275 41 84
71 197 86 320 12 98 6 362 -9 377 -5 5 -15 -9 -25 -34z"/>
<path d="M3681 2322 c-14 -26 -14 -73 0 -109 10 -27 11 -28 26 -8 10 14 13 35
10 68 -5 58 -20 78 -36 49z"/>
<path d="M3760 2275 c0 -15 40 -82 59 -99 22 -20 43 -14 23 6 -7 7 -12 19 -12
28 0 9 -13 28 -28 43 -27 26 -42 33 -42 22z"/>
<path d="M3730 2152 c0 -5 14 -21 31 -38 17 -16 37 -41 45 -56 18 -34 42 -36
53 -5 6 15 4 27 -5 38 -8 8 -14 21 -14 27 0 7 -8 12 -18 12 -10 0 -27 7 -38
15 -21 16 -54 20 -54 7z"/>
<path d="M3427 2108 c-5 -16 10 -48 23 -48 15 0 12 36 -4 49 -11 9 -15 9 -19
-1z"/>
<path d="M3899 2041 c-31 -25 -21 -35 11 -11 14 10 22 21 19 25 -3 3 -17 -3
-30 -14z"/>
<path d="M830 2028 c0 -7 5 -31 10 -53 5 -22 18 -125 30 -230 24 -223 40 -305
87 -439 19 -54 32 -101 29 -103 -3 -3 -33 23 -68 58 -35 34 -112 104 -173 154
-128 107 -180 161 -256 265 -63 87 -72 78 -34 -37 87 -258 243 -481 394 -561
33 -18 111 -50 173 -71 62 -20 120 -40 128 -44 8 -4 21 -3 29 2 12 8 8 26 -27
108 -49 114 -69 181 -122 422 -21 97 -53 221 -70 276 -50 157 -131 314 -130
253z"/>
<path d="M4213 2011 c-20 -32 -89 -203 -106 -262 -9 -30 -30 -117 -47 -194
-55 -251 -82 -348 -123 -445 -22 -52 -42 -107 -44 -122 l-5 -28 43 14 c24 7
85 26 134 41 50 15 117 41 150 58 73 36 182 139 240 228 89 133 201 388 193
439 -2 18 -10 11 -43 -41 -53 -84 -157 -193 -276 -290 -53 -43 -133 -115 -178
-161 -82 -83 -97 -88 -62 -20 55 108 105 331 126 554 8 90 18 182 21 206 7 45
-3 55 -23 23z"/>
<path d="M2680 1506 c-8 -8 -31 -23 -50 -33 -29 -16 -37 -27 -44 -67 -8 -39
-7 -50 7 -63 31 -31 66 -7 104 70 19 38 33 76 31 85 -4 22 -29 26 -48 8z"/>
<path d="M1166 1422 c-6 -10 103 -272 163 -392 33 -66 59 -100 114 -152 l71
-68 -35 0 c-75 0 -420 30 -464 40 -71 16 -193 65 -258 105 -58 35 -87 43 -87
26 0 -18 117 -157 181 -214 73 -66 211 -139 309 -163 126 -32 434 12 571 81
25 13 63 26 85 30 102 17 97 15 77 37 -10 12 -55 38 -101 59 -102 47 -152 93
-330 304 -224 264 -284 326 -296 307z"/>
<path d="M3813 1343 c-38 -43 -107 -123 -153 -178 -111 -132 -255 -280 -306
-316 -23 -16 -66 -38 -97 -49 -49 -19 -97 -54 -86 -64 3 -3 37 -12 77 -20 40
-8 98 -26 130 -40 131 -58 345 -92 480 -76 158 18 284 82 412 210 78 78 167
210 142 210 -5 0 -27 -14 -48 -31 -55 -44 -161 -95 -244 -118 -68 -19 -124
-27 -380 -51 -63 -6 -123 -14 -132 -16 -32 -9 -19 15 46 92 74 86 123 175 195
355 49 121 61 169 42 169 -5 0 -40 -35 -78 -77z"/>
<path d="M2635 1293 c-36 -10 -65 -35 -65 -58 0 -28 23 -49 47 -41 20 7 66 84
57 97 -5 9 -8 10 -39 2z"/>
<path d="M2224 1199 c-9 -15 5 -26 46 -34 l35 -7 -24 26 c-26 28 -46 33 -57
15z"/>
<path d="M2562 1157 c-7 -8 -25 -18 -40 -23 -25 -7 -24 -8 18 -15 63 -11 110
-11 110 0 0 5 -12 12 -27 16 -15 3 -32 13 -38 22 -10 13 -12 13 -23 0z"/>
<path d="M2432 998 c-20 -20 -13 -31 16 -23 27 6 27 6 -10 -32 -21 -21 -38
-42 -38 -46 0 -4 18 -7 40 -7 22 0 40 5 40 10 0 6 -9 10 -21 10 -19 0 -18 3
11 30 21 19 30 36 26 46 -3 9 -6 18 -6 20 0 9 -47 3 -58 -8z"/>
<path d="M2516 988 c-25 -39 -29 -73 -11 -92 15 -15 20 -15 39 -3 23 15 43 75
33 101 -9 23 -44 20 -61 -6z m44 -37 c0 -18 -18 -41 -32 -41 -11 0 -10 28 3
51 11 22 29 17 29 -10z"/>
<path d="M2602 998 c-20 -20 -14 -31 15 -23 26 6 26 6 -10 -34 -20 -23 -37
-43 -37 -46 0 -3 18 -5 40 -5 22 0 40 5 40 10 0 6 -7 10 -15 10 -22 0 -19 9
11 32 32 26 29 62 -6 66 -14 2 -31 -3 -38 -10z"/>
<path d="M2680 995 c0 -8 5 -15 11 -15 6 0 3 -8 -7 -17 -16 -17 -16 -18 5 -23
32 -7 31 -24 -1 -28 -16 -2 -28 -7 -28 -12 0 -15 20 -22 45 -16 29 8 45 53 24
67 -12 8 -11 11 4 20 30 18 21 39 -18 39 -24 0 -35 -5 -35 -15z"/>
<path d="M2670 738 c-41 -6 -111 -9 -155 -7 -44 1 -154 3 -245 3 -201 1 -199
2 -483 -140 -209 -105 -343 -154 -419 -154 -53 0 -175 28 -220 51 -42 21 -78
25 -78 7 0 -31 158 -149 267 -200 55 -26 81 -32 162 -36 216 -10 306 32 592
278 81 70 177 127 219 130 49 4 90 0 90 -9 0 -5 -48 -47 -107 -92 -108 -83
-321 -287 -382 -366 l-32 -42 46 -46 c25 -25 50 -43 55 -40 5 3 46 54 92 113
145 188 344 380 430 417 l37 15 83 -63 c107 -80 276 -251 353 -357 33 -45 69
-94 81 -108 l21 -25 46 43 c26 23 47 48 47 56 0 7 -50 67 -111 134 -106 114
-256 245 -354 307 -49 31 -55 47 -24 64 57 30 155 -18 314 -155 253 -218 364
-267 579 -253 73 5 101 12 160 40 86 42 210 128 232 163 26 39 6 48 -49 24
-25 -11 -80 -29 -121 -40 -133 -34 -212 -13 -501 133 -105 53 -231 109 -280
126 -105 35 -228 45 -345 29z"/>
</g>
</svg>
