<?xml version="1.0" standalone="no"?>
<!DOCTYPE svg PUBLIC "-//W3C//DTD SVG 20010904//EN"
 "http://www.w3.org/TR/2001/REC-SVG-20010904/DTD/svg10.dtd">
<svg version="1.0" xmlns="http://www.w3.org/2000/svg"
 width="511.000000pt" height="262.000000pt" viewBox="0 0 511.000000 262.000000"
 preserveAspectRatio="xMidYMid meet">

<g transform="translate(0.000000,262.000000) scale(0.100000,-0.100000)"
fill="#000000" stroke="none">
<path d="M469 2581 c-113 -50 -242 -136 -306 -204 -90 -95 -130 -216 -104
-314 14 -52 52 -102 164 -215 110 -112 177 -201 177 -238 0 -15 -9 -39 -20
-53 -11 -14 -20 -32 -20 -40 0 -16 -67 -77 -85 -77 -5 0 5 13 24 29 23 19 32
33 28 45 -4 9 -11 16 -16 16 -5 0 -66 -28 -135 -61 -120 -58 -176 -101 -176
-134 0 -18 55 -63 87 -71 63 -16 267 88 352 180 13 14 38 28 55 30 115 18 116
18 127 -8 7 -15 17 -22 28 -19 10 3 22 -8 35 -31 23 -43 63 -61 113 -51 59 11
82 27 184 129 53 53 104 96 113 96 42 0 44 -69 5 -181 -41 -119 -8 -120 176
-4 17 10 24 12 18 5 -22 -24 -16 -68 11 -85 23 -15 27 -15 65 4 22 12 68 46
103 77 l62 56 18 -40 c28 -68 69 -78 136 -35 47 30 55 44 46 78 l-6 24 -29
-21 c-39 -29 -59 -12 -59 52 0 53 -17 75 -50 65 -11 -4 -57 -38 -101 -76 -44
-38 -82 -69 -85 -69 -14 0 27 47 130 152 122 123 142 158 87 158 -15 0 -45
-11 -66 -25 -37 -25 -161 -129 -201 -169 -28 -28 -122 -107 -145 -124 -17 -12
-19 -11 -19 8 0 11 7 37 15 57 19 44 19 94 1 136 -15 37 -75 87 -105 87 -30 0
-81 -48 -81 -77 0 -28 -105 -145 -152 -169 -29 -15 -76 -18 -94 -6 -29 20 -23
43 26 96 74 83 96 135 78 186 -12 34 -41 46 -80 31 -50 -19 -138 -160 -138
-221 0 -10 -6 -23 -14 -29 -11 -9 -16 -5 -26 18 -7 18 -21 31 -33 33 -19 3
-23 11 -28 74 -4 39 -12 80 -18 92 -6 11 -67 87 -136 168 -211 248 -221 302
-82 436 57 54 87 75 87 59 0 -6 -16 -23 -35 -38 -43 -34 -50 -83 -12 -83 29 0
125 57 207 123 57 46 66 58 74 98 6 34 5 53 -5 75 -21 43 -64 42 -170 -5z
m331 -924 c0 -7 -14 -26 -31 -43 l-31 -29 21 43 c21 41 41 55 41 29z"/>
<path d="M2190 1876 c-116 -44 -214 -107 -272 -175 -43 -51 -72 -130 -65 -181
6 -44 39 -91 143 -200 39 -41 79 -90 88 -108 16 -31 16 -34 -1 -65 -25 -44
-44 -67 -68 -78 -11 -6 -8 -1 8 11 65 51 13 53 -86 4 -82 -41 -117 -70 -117
-95 0 -20 47 -49 80 -49 34 0 128 49 188 98 44 36 68 48 111 54 45 7 60 15 87
46 l32 37 5 -25 c3 -14 8 -45 12 -70 8 -58 28 -80 74 -80 32 0 44 9 108 75
l71 75 21 -35 c11 -19 32 -40 46 -47 37 -17 104 18 167 87 28 30 54 55 59 55
14 0 10 -40 -11 -109 -35 -112 -2 -123 86 -29 131 140 173 180 182 174 13 -8
5 -75 -20 -159 -36 -122 0 -132 93 -24 74 86 109 117 129 117 9 0 34 -18 55
-41 50 -51 90 -72 121 -65 13 3 52 36 88 73 36 37 68 64 72 60 5 -4 0 -38 -11
-75 -25 -90 -25 -115 0 -120 14 -3 51 29 139 119 l120 124 4 -44 c2 -25 -5
-72 -17 -111 -24 -76 -26 -96 -11 -105 22 -13 51 9 120 91 41 47 83 87 97 90
19 5 35 -4 83 -50 67 -64 87 -68 143 -30 31 20 41 23 53 14 8 -7 14 -18 14
-24 0 -24 46 -56 81 -58 82 -2 117 18 239 138 64 63 124 114 133 114 38 0 38
-98 1 -200 -29 -76 -24 -100 20 -100 23 0 174 88 195 114 11 13 5 42 -15 65
-2 2 -21 -11 -42 -28 -39 -30 -62 -39 -62 -23 0 4 9 35 20 69 28 91 17 143
-44 200 -24 24 -53 43 -64 43 -33 0 -86 -43 -92 -75 -10 -47 -23 -65 -97 -137
-75 -71 -122 -91 -169 -69 -37 16 -30 47 26 111 54 62 89 130 90 170 0 42 -26
70 -66 70 -28 0 -43 -9 -78 -45 -47 -49 -96 -140 -96 -177 0 -23 -54 -108 -69
-108 -12 0 -47 42 -64 75 -43 84 -87 86 -176 8 -45 -40 -52 -43 -46 -22 28 87
33 170 10 189 -24 20 -56 1 -152 -93 -51 -50 -93 -88 -93 -84 0 3 5 29 11 57
15 70 6 100 -29 100 -21 0 -50 -23 -138 -113 -60 -62 -116 -111 -122 -109 -7
2 -29 29 -49 60 -20 31 -43 62 -51 68 -24 17 -68 0 -123 -46 -26 -22 -50 -40
-53 -40 -3 0 1 19 9 41 8 23 15 65 15 94 0 106 -45 97 -174 -36 -43 -44 -79
-79 -81 -77 -2 2 2 26 8 54 14 70 4 104 -31 104 -21 0 -50 -23 -141 -117 -130
-133 -139 -136 -156 -37 -10 54 -13 59 -38 62 -16 2 -34 -2 -42 -8 -10 -8 -14
-7 -18 7 -3 10 -5 4 -4 -13 1 -19 -10 -45 -28 -70 -43 -59 -97 -114 -112 -114
-19 0 -16 113 6 180 l17 55 27 -55 c20 -38 26 -46 22 -25 -4 17 -13 37 -21 46
-8 8 -14 34 -14 57 0 84 -48 69 -136 -45 -75 -98 -124 -153 -136 -153 -4 0 -8
12 -8 28 0 59 -22 101 -110 205 -144 173 -151 201 -69 291 28 31 56 56 62 56
6 0 -2 -13 -17 -29 -34 -35 -30 -67 6 -55 25 7 140 86 170 116 24 24 24 80 0
101 -22 20 -18 20 -62 3z m2350 -526 c0 -15 -59 -77 -60 -62 0 22 33 72 47 72
7 0 13 -4 13 -10z"/>
<path d="M2250 1731 c0 -12 5 -21 10 -21 6 0 10 6 10 14 0 8 -4 18 -10 21 -5
3 -10 -3 -10 -14z"/>
<path d="M2300 1695 c0 -8 7 -15 15 -15 9 0 12 6 9 15 -4 8 -10 15 -15 15 -5
0 -9 -7 -9 -15z"/>
<path d="M2435 1640 c3 -5 10 -10 16 -10 5 0 9 5 9 10 0 6 -7 10 -16 10 -8 0
-12 -4 -9 -10z"/>
<path d="M2404 1608 c-3 -5 0 -7 7 -6 8 2 14 -7 15 -20 1 -24 23 -45 64 -64
21 -9 22 -12 8 -15 -21 -5 -21 -2 -7 -42 15 -42 29 -39 29 7 0 20 3 46 6 58 8
32 -38 81 -82 86 -19 2 -38 0 -40 -4z m78 -25 c18 -16 25 -53 10 -53 -16 0
-54 48 -47 59 9 15 15 14 37 -6z"/>
<path d="M2227 1539 c-24 -14 -21 -26 8 -31 19 -4 25 -1 25 13 0 23 -11 30
-33 18z"/>
<path d="M2325 1536 c-17 -13 -18 -15 -3 -16 9 0 20 5 23 10 9 15 25 12 19 -4
-3 -8 3 -19 15 -26 12 -6 21 -17 21 -24 0 -8 7 -20 17 -27 15 -13 15 -12 5 8
-7 12 -13 37 -15 55 -2 29 -6 33 -32 36 -17 2 -39 -4 -50 -12z"/>
<path d="M2280 1500 c0 -5 5 -10 11 -10 5 0 7 5 4 10 -3 6 -8 10 -11 10 -2 0
-4 -4 -4 -10z"/>
<path d="M2557 1408 c-8 -30 -1 -35 12 -9 6 11 7 22 2 25 -5 3 -11 -4 -14 -16z"/>
<path d="M2330 1380 c0 -6 7 -10 15 -10 8 0 15 2 15 4 0 2 -7 6 -15 10 -8 3
-15 1 -15 -4z"/>
<path d="M2570 1358 c0 -9 5 -20 11 -23 17 -11 18 -2 3 19 -12 17 -14 17 -14
4z"/>
<path d="M1372 1130 c7 -27 14 -38 21 -31 11 11 -4 63 -20 68 -8 3 -8 -8 -1
-37z"/>
<path d="M1390 1066 c0 -10 -4 -15 -10 -11 -19 12 -2 -69 20 -92 31 -32 40
-29 29 9 -5 18 -9 45 -9 59 0 15 -7 32 -15 39 -12 10 -15 9 -15 -4z"/>
<path d="M1905 899 c-10 -15 3 -25 16 -12 7 7 7 13 1 17 -6 3 -14 1 -17 -5z"/>
<path d="M1493 867 c4 -10 7 -25 7 -33 0 -8 7 -14 15 -14 20 0 19 7 -7 38 -13
17 -19 20 -15 9z"/>
<path d="M1850 855 c-11 -13 -10 -14 4 -9 9 3 16 10 16 15 0 13 -6 11 -20 -6z"/>
<path d="M1720 831 c0 -6 -8 -7 -17 -4 -12 5 -15 2 -10 -10 4 -10 2 -17 -5
-17 -6 0 -9 -2 -7 -5 3 -2 14 -2 26 1 24 7 37 30 23 39 -6 4 -10 2 -10 -4z"/>
<path d="M1925 820 c-3 -5 1 -10 9 -10 8 0 18 5 21 10 3 6 -1 10 -9 10 -8 0
-18 -4 -21 -10z"/>
<path d="M2506 815 c-20 -21 -20 -39 1 -72 16 -25 16 -26 -7 -45 -25 -21 -46
-20 -125 1 -47 12 -121 13 -150 2 -12 -5 -26 -4 -34 3 -11 8 -13 8 -7 -2 5 -8
-1 -15 -16 -21 -13 -6 -19 -10 -14 -10 4 -1 -6 -17 -23 -36 -17 -20 -31 -41
-31 -48 0 -7 -19 -19 -42 -27 -23 -8 -44 -22 -46 -30 -4 -11 -1 -10 12 3 22
22 52 22 58 0 3 -10 4 -35 3 -55 -1 -21 2 -38 8 -38 5 0 7 -7 3 -15 -3 -8 2
-21 10 -30 18 -18 15 -19 -21 -5 -17 7 -34 27 -50 62 -14 29 -25 47 -25 40 0
-34 56 -122 78 -122 6 0 8 -10 4 -22 -4 -16 -2 -19 8 -13 9 5 11 4 6 -3 -4 -7
-14 -12 -21 -12 -21 0 -48 -59 -49 -107 -1 -40 -16 -52 -16 -13 0 11 -13 34
-28 51 -28 31 -29 31 -34 11 -4 -12 -2 -22 2 -22 17 0 40 -32 40 -55 0 -15 10
-31 24 -41 14 -8 23 -21 20 -27 -2 -7 21 -23 54 -37 58 -25 127 -29 335 -20
54 3 72 12 45 23 -9 4 -10 8 -2 14 6 4 10 16 8 26 -1 9 1 15 6 12 5 -3 11 1
14 7 5 10 7 10 12 1 6 -13 75 -18 87 -7 5 6 -22 80 -43 117 -6 10 -8 21 -6 26
3 4 -10 7 -29 5 -32 -2 -35 0 -49 44 -16 45 -16 46 8 71 31 34 42 57 50 109 4
24 15 61 26 82 29 57 35 111 17 151 -9 19 -17 45 -19 59 -4 30 -29 37 -52 15z
m40 -23 c-4 -10 1 -27 9 -38 16 -21 20 -101 6 -123 -12 -19 -51 4 -51 30 0 21
1 20 21 -2 l20 -24 -12 25 c-8 16 -8 25 -2 27 7 3 3 19 -8 43 -25 52 -25 80 2
80 15 0 19 -5 15 -18z m-251 -103 l-40 -7 48 1 c26 1 47 -1 47 -5 0 -3 18 -9
40 -13 27 -5 40 -12 41 -23 0 -11 2 -12 6 -4 8 20 20 14 43 -23 18 -30 21 -44
15 -87 -4 -29 -14 -58 -21 -66 -8 -7 -14 -10 -14 -6 0 4 -7 -1 -15 -12 -14
-19 -14 -19 -15 1 -1 14 -6 9 -14 -15 -12 -33 -13 -34 -20 -12 -9 28 -64 92
-78 92 -6 0 5 -17 25 -39 65 -72 57 -144 -19 -170 -59 -21 -105 -6 -119 39 -6
20 -5 23 6 13 16 -16 33 -17 23 -2 -3 6 6 3 22 -6 26 -15 25 -14 -6 15 l-35
32 55 -26 c51 -25 51 -22 3 12 -16 12 -16 12 7 8 24 -5 24 -4 5 9 -44 32 -62
50 -58 58 6 11 -25 9 -48 -3 -24 -14 -24 -36 1 -85 25 -48 19 -57 -8 -13 -30
49 -36 82 -18 97 22 18 20 34 -2 27 -21 -7 -42 28 -42 67 1 21 1 21 15 -3 8
-14 14 -20 15 -15 0 6 -7 21 -16 33 -14 21 -14 25 6 57 12 20 33 38 48 42 15
3 32 12 37 19 12 15 39 22 85 21 l35 0 -40 -8z m240 -101 c-14 -25 -19 -23
-38 17 -28 58 -21 71 16 33 25 -26 30 -37 22 -50z m-357 -302 c-15 -9 -14 -12
10 -22 l27 -11 -32 -17 c-45 -23 -42 -30 3 -9 35 17 36 17 55 -6 20 -24 25
-67 10 -90 -7 -11 -11 -10 -20 5 -9 17 -10 17 -11 -6 -1 -14 -4 -19 -7 -12 -2
6 -9 10 -14 6 -5 -3 -9 0 -9 5 0 6 -4 11 -10 11 -5 0 -10 -6 -10 -14 0 -26
-39 -11 -80 32 -38 38 -42 47 -37 79 8 46 30 69 75 80 28 7 41 5 52 -6 13 -12
13 -15 -2 -25z m36 -2 c23 -9 20 -23 -4 -17 -11 3 -20 9 -20 14 0 11 3 11 24
3z m180 -51 c0 -17 -8 -29 -23 -35 -23 -8 -20 -28 5 -28 17 0 19 -36 2 -46 -8
-5 -9 0 -6 14 4 15 2 22 -8 22 -8 0 -15 -8 -15 -17 -1 -17 -2 -17 -6 0 -4 17
-6 16 -24 -4 -15 -18 -21 -20 -34 -9 -8 7 -15 23 -15 37 0 13 -7 37 -15 53
-14 27 -14 29 8 33 12 2 47 5 77 6 54 1 56 0 54 -26z m38 -5 c-9 -9 -15 -9
-24 0 -9 9 -7 12 12 12 19 0 21 -3 12 -12z m74 -66 c-10 -10 -29 15 -21 28 6
9 10 8 17 -4 6 -10 7 -20 4 -24z m-103 21 c-7 -2 -19 -2 -25 0 -7 3 -2 5 12 5
14 0 19 -2 13 -5z"/>
<path d="M2432 548 c6 -18 28 -21 28 -4 0 9 -7 16 -16 16 -9 0 -14 -5 -12 -12z"/>
<path d="M2115 179 c-4 -6 -5 -12 -2 -15 2 -3 7 2 10 11 7 17 1 20 -8 4z"/>
<path d="M1769 793 c-13 -16 -12 -17 4 -4 16 13 21 21 13 21 -2 0 -10 -8 -17
-17z"/>
<path d="M2550 310 c0 -5 4 -10 9 -10 6 0 13 5 16 10 3 6 -1 10 -9 10 -9 0
-16 -4 -16 -10z"/>
<path d="M1983 103 c9 -2 25 -2 35 0 9 3 1 5 -18 5 -19 0 -27 -2 -17 -5z"/>
</g>
</svg>
