<?xml version="1.0" standalone="no"?>
<!DOCTYPE svg PUBLIC "-//W3C//DTD SVG 20010904//EN"
 "http://www.w3.org/TR/2001/REC-SVG-20010904/DTD/svg10.dtd">
<svg version="1.0" xmlns="http://www.w3.org/2000/svg"
 width="136.000000pt" height="100.000000pt" viewBox="0 0 136.000000 100.000000"
 preserveAspectRatio="xMidYMid meet">

<g transform="translate(0.000000,100.000000) scale(0.100000,-0.100000)"
fill="#000000" stroke="none">
<path d="M305 860 c-120 -26 -197 -104 -179 -184 12 -58 36 -90 156 -213 93
-95 119 -127 116 -145 -3 -20 -10 -23 -48 -26 -59 -5 -107 11 -169 53 -48 33
-74 35 -48 3 107 -132 418 -100 467 47 24 72 -15 134 -186 303 -111 110 -113
142 -9 142 28 0 62 -10 99 -29 55 -30 82 -28 48 2 -45 41 -167 64 -247 47z"/>
<path d="M835 860 c-90 -19 -156 -66 -175 -125 -24 -74 11 -135 169 -292 81
-80 102 -106 99 -125 -3 -20 -9 -23 -52 -26 -59 -4 -119 17 -172 58 -36 30
-58 32 -48 6 3 -8 23 -26 45 -40 144 -96 386 -51 429 79 24 72 -17 137 -186
301 -61 60 -84 88 -84 107 0 48 89 52 174 8 55 -30 82 -28 48 2 -45 41 -167
64 -247 47z"/>
</g>
</svg>
