<?xml version="1.0" standalone="no"?>
<!DOCTYPE svg PUBLIC "-//W3C//DTD SVG 20010904//EN"
 "http://www.w3.org/TR/2001/REC-SVG-20010904/DTD/svg10.dtd">
<svg version="1.0" xmlns="http://www.w3.org/2000/svg"
 width="188.000000pt" height="80.000000pt" viewBox="0 0 188.000000 80.000000"
 preserveAspectRatio="xMidYMid meet">

<g transform="translate(0.000000,80.000000) scale(0.100000,-0.100000)"
fill="#000000" stroke="none">
<path d="M135 620 c-4 -6 10 -10 34 -10 l41 0 0 -205 0 -205 95 0 95 0 0 205
0 205 61 0 c37 0 58 4 54 10 -4 6 -78 10 -190 10 -112 0 -186 -4 -190 -10z"/>
<path d="M1260 415 l0 -215 80 0 80 0 0 140 0 139 30 16 c16 8 38 15 50 15 19
0 20 -5 20 -155 l0 -155 80 0 80 0 -1 123 c-1 67 -4 135 -8 151 -15 72 -118
93 -205 42 l-46 -27 0 71 0 70 -80 0 -80 0 0 -215z"/>
<path d="M623 539 c-46 -13 -99 -72 -112 -124 -31 -122 76 -244 192 -220 43 9
114 51 127 75 16 29 -2 24 -34 -9 -35 -36 -75 -54 -112 -49 -29 3 -29 4 -32
76 l-3 72 101 0 101 0 -7 38 c-13 74 -46 114 -111 138 -44 15 -65 16 -110 3z
m95 -86 l3 -73 -36 0 -35 0 0 68 c0 38 3 72 7 76 4 4 19 6 33 4 24 -3 25 -6
28 -75z"/>
<path d="M997 536 c-75 -27 -110 -80 -110 -168 0 -158 173 -232 289 -123 20
20 34 38 31 42 -4 3 -16 -6 -28 -21 -25 -32 -69 -56 -104 -56 l-25 0 0 160 0
160 33 0 c34 0 97 -32 97 -50 0 -5 5 -10 12 -10 23 0 -47 60 -81 70 -47 13
-68 12 -114 -4z"/>
</g>
</svg>
